<?xml version="1.0" encoding="utf-8"?><svg xmlns="http://www.w3.org/2000/svg" xmlns:xlink="http://www.w3.org/1999/xlink"><symbol viewBox="0 0 24 24" id="facebook" xmlns="http://www.w3.org/2000/svg"><path d="M15.997 3.985h2.191V.169C17.81.117 16.51 0 14.996 0c-3.159 0-5.323 1.987-5.323 5.639V9H6.187v4.266h3.486V24h4.274V13.267h3.345l.531-4.266h-3.877V6.062c.001-1.233.333-2.077 2.051-2.077z"/></symbol><symbol viewBox="0 0 511 511.9" id="instagram" xmlns="http://www.w3.org/2000/svg"><path d="M510.95 150.5c-1.2-27.2-5.598-45.898-11.9-62.102-6.5-17.199-16.5-32.597-29.6-45.398-12.802-13-28.302-23.102-45.302-29.5-16.296-6.3-34.898-10.7-62.097-11.898C334.648.3 325.949 0 256.449 0s-78.199.3-105.5 1.5c-27.199 1.2-45.898 5.602-62.097 11.898-17.204 6.5-32.602 16.5-45.403 29.602-13 12.8-23.097 28.3-29.5 45.3-6.3 16.302-10.699 34.9-11.898 62.098C.75 177.801.449 186.5.449 256s.301 78.2 1.5 105.5c1.2 27.2 5.602 45.898 11.903 62.102 6.5 17.199 16.597 32.597 29.597 45.398 12.801 13 28.301 23.102 45.301 29.5 16.3 6.3 34.898 10.7 62.102 11.898 27.296 1.204 36 1.5 105.5 1.5s78.199-.296 105.5-1.5c27.199-1.199 45.898-5.597 62.097-11.898a130.934 130.934 0 0074.903-74.898c6.296-16.301 10.699-34.903 11.898-62.102 1.2-27.3 1.5-36 1.5-105.5s-.102-78.2-1.3-105.5zm-46.098 209c-1.102 25-5.301 38.5-8.801 47.5-8.602 22.3-26.301 40-48.602 48.602-9 3.5-22.597 7.699-47.5 8.796-27 1.204-35.097 1.5-103.398 1.5s-76.5-.296-103.403-1.5c-25-1.097-38.5-5.296-47.5-8.796C94.551 451.5 84.45 445 76.25 436.5c-8.5-8.3-15-18.3-19.102-29.398-3.5-9-7.699-22.602-8.796-47.5-1.204-27-1.5-35.102-1.5-103.403s.296-76.5 1.5-103.398c1.097-25 5.296-38.5 8.796-47.5C61.25 94.199 67.75 84.1 76.352 75.898c8.296-8.5 18.296-15 29.398-19.097 9-3.5 22.602-7.7 47.5-8.801 27-1.2 35.102-1.5 103.398-1.5 68.403 0 76.5.3 103.403 1.5 25 1.102 38.5 5.3 47.5 8.8 11.097 4.098 21.199 10.598 29.398 19.098 8.5 8.301 15 18.301 19.102 29.403 3.5 9 7.699 22.597 8.8 47.5 1.2 27 1.5 35.097 1.5 103.398s-.3 76.301-1.5 103.301zm0 0"/><path d="M256.45 124.5c-72.598 0-131.5 58.898-131.5 131.5s58.902 131.5 131.5 131.5c72.6 0 131.5-58.898 131.5-131.5s-58.9-131.5-131.5-131.5zm0 216.8c-47.098 0-85.302-38.198-85.302-85.3s38.204-85.3 85.301-85.3c47.102 0 85.301 38.198 85.301 85.3s-38.2 85.3-85.3 85.3zm0 0M423.852 119.3c0 16.954-13.747 30.7-30.704 30.7-16.953 0-30.699-13.746-30.699-30.7 0-16.956 13.746-30.698 30.7-30.698 16.956 0 30.703 13.742 30.703 30.699zm0 0"/></symbol><symbol viewBox="0 0 312.01 105.67" shape-rendering="geometricPrecision" text-rendering="geometricPrecision" image-rendering="optimizeQuality" fill-rule="evenodd" clip-rule="evenodd" id="logo_branco" xmlns="http://www.w3.org/2000/svg"><defs><style>.cfil0,.cfil1{fill:#fff}.cfil1{fill-rule:nonzero}</style></defs><g id="cCamada_x0020_1"><g id="c_1881142748912"><path class="cfil0" d="M81 49.29c-.52-6.09 3.53-10.61 7.91-14.93 2.69.28 5.06.53 7.75.82 1.26-2.48 2.51-4.95 3.77-7.43 1.22-.65 2.44-1.31 3.66-1.96 1.41.62 2.83 1.24 4.24 1.86 1.93-2.26 3.86-4.53 5.79-6.79l9.92 2.34c1.32-3.63 2.64-7.27 3.96-10.9 7.03-6.49 7.14-12.42 10.83-12.3h4.14c7.16 6.25 14.32 12.49 21.48 18.74 2.82-2.71 5.64-5.43 8.46-8.14 11.51 6.07 17.56 8.45 27.85 13.11l10.13 7.01c4.19 5.61 8.38 11.21 12.57 16.82.09.55.18 1.1.27 1.64l.01 1.5-142.65.15c-.15-.59-.06-.67-.01-.86.03-.12.03-.29-.07-.67zm45.4-.33c-.22-3.03 1.1-7.03 2.79-9.01 2.13-2.48 4.88-3.2 8.68-4.36-6.34-1.28-7.1-4.2-2.12-8.81-.81-1.56-1.63-3.11-2.44-4.67 2.09-.27 3.12-2.17 2.46-6.5-.14-.91-.13-.71.29-1.54.89-1.78 1.78-3.55 2.67-5.33-.71-2.41-1.02-4.82-1.72-7.22l2.83-.04c.98-.01 1.95.04 2.79-.05 6.93 6.16 13.15 12.12 20.08 18.28-.5 1.7-.89 3.05-1.39 4.74-2.37 2.4-4.74 4.81-7.11 7.21 4.17 2.3 7.04 11.15 10.53 13 3.09.77 6.99-2.28 7.61-1.96.99.5 1.98.99 2.97 1.49-1.31-2.83-2.62-5.66-3.92-8.49 1.35-3.01 3.59-5.91 4.94-8.91l-1.75-5.31c.6-.85 1.35-2.14 1.95-2.98-1.84.04-3.12-.86-2.92-2.33.1-.69.24-.99.74-1.39.82-.65 1.29-1.22 2.24-1.89 6.47 3.96 12.76 8.14 19.23 12.1.42-.46 1.03-1.13 1.46-1.59 3.57 2.26 7.14 4.53 10.71 6.79l14.64 17.19c.72.95.87 1.45-.74 1.49-7.39 0-14.78-.01-22.18-.01-1.5-1.39-3.61-1.94-5.83-2.34 1.13-.42 2.26-.85 3.4-1.27-1.31-1.27-2.52-2.36-4.14-3.49-2.18-.57-3.96-.7-5.94-1.08-.35 1.06-.85 2.43-1.21 3.49-2.58.56-5.02.82-7.6 1.39 1.91 1.03 3.82 2.05 5.73 3.08-8.21.1-16.41.21-24.62.31-1.95-1.66-4.81-1.55-7.21-3.08-1.13.92-1.84 1.87-2.12 2.86-7.92.07-15.84.14-23.77.2zm-41.16.08c1.38-1.69 2.39-3.79 3.2-6.11v-6.68c3.39 1.29 6.77 2.57 10.16 3.86 1.37-.35 2.49-.99 3.29-1.97-.06-2.01-.12-4.01-.19-6.02.75-1.47 1.28-2.95 2.03-4.42 1.54.41 3.3.82 4.83 1.22.39 10.52 2.59 14.78 4.98 17.69.66-4.29 1.32-9.25 1.98-13.55-.38-.56-.75-1.13-1.13-1.69-.45-.68-.47-.48.14-1.03.8-.72 1.6-1.45 2.4-2.17-1.92-1.42-2.39-3.4-1.97-5.74l9.5 2.73c1.57 2.92 3.13 5.83 4.7 8.75-.06.69-.13 1.38-.19 2.07-1.57 1.79-3.14 3.57-4.7 5.36.66 1.1 1.32 2.2 1.97 3.29-2.1 1.47-4.2 2.95-6.3 4.42l-17.63.18c-.71-1.97-2.47-3.09-6.66-.1-3.54-.03-6.87-.06-10.42-.1zm62.51-18.9c.77 1.57 1.54 3.13 2.31 4.7l4.25-6.23c-1.95-4.7-3.9-9.41-5.86-14.11.06 3.6 1.47 7.4 3.02 11.22-1.24 1.48-2.48 2.95-3.72 4.43zM33.22 37.68c-4.08 1.98-19.56 1-24.9 1.03-1.86-.15-3.48-.07-4.86.23C1.02 40.93 0 42.38 0 45.42l1.62-.47 9.46.23V78.9c-.3 1.38-.84 2.62-1.6 3.7l1.6-.23 12.47.23c-.93-1.24-1.62-2.86-2.08-4.85V45.18l.69-.23h6.93c2.4-1.82 3.77-4.01 4.38-6.46l-.26-.81z"/><path class="cfil1" d="M29.86 55.53c.67 1.05 1.01 2.05 1.01 3.01v22.19l-1.01 1.57 15.03.14c.73-1.32 1.97-3.21 2.44-4.58-2.58.63-7.93.88-10.17.42v-9.73l8.6-.14-.44-1c-.66-1.34-1.14-2.2-1.43-2.58-1.61 0-5.34.25-6.73-.14v-5.3c1.24-.29 5.49-.25 7.01 0l2.15.44-.28-.87-2.01-3.43H29.86zm19.79 1.36c1 .55 1.5 1.37 1.5 2.45v21.17c-.46.82-.91 1.46-1.36 1.9h9.23c-.63-.91-1.08-1.77-1.35-2.57l.13-21.19c8.39 0 9.1 10.04 1.08 11.4l.13.55c1.63 2.22 3 4.84 4.48 7.19.73 1.36 1.5 2.4 2.31 3.12 2.9 1.36 5.93 1.86 9.09 1.5l-.4-.41c-2.07-2.09-7.13-9.29-8.42-11.82C79.61 56.53 54 53.55 49.79 56.47l-.13.41zm26.48-.07c1 .55 1.51 1.37 1.51 2.47v21.28c-.46.82-.92 1.46-1.37 1.91h9.28c-.63-.91-1.08-1.78-1.36-2.59l.13-21.3c8.43 0 9.15 10.09 1.09 11.46l.13.56c1.63 2.24 3.02 4.87 4.5 7.23.73 1.37 1.51 2.41 2.32 3.13 2.91 1.37 5.96 1.87 9.14 1.5l-.41-.41c-2.08-2.1-7.16-9.34-8.46-11.88C106.24 56.46 80.5 53.46 76.26 56.4l-.13.41zM111 58.31l-.46.87-2.02 5.71-.24.87-1.57 4.39-.22.88-.46.87-2.25 6.36c-.45 1.61-.97 2.92-1.58 3.94h6.77l-.44-1.31 2.25-6.81h6.75c1.29 2.5 1.88 5 3.16 7.24l-.45.87h9.25c-3.78-6.38-7.68-19.9-10.15-26.54h-8.56l.22 2.63zm5.26 13.28h-5.04l2.4-8.23 2.64 8.23zm176.81-3.16l3.37 3.23c8.95 8.61-2.06 7.36-5.19 5.33v.43l.28 1.12.14.7.56 2.12 2.26.84c7.49.85 11.85-1.07 13.07-5.77 1.85-6.13-12.09-11.75-12.09-16.31 4.91-5.97 9.27 4.67 8.86-.7v-3.09c-10.39-4.15-17.59 6.45-11.26 12.09zM145.69 55.01c.42 1.17.81 2.61 1.14 3.82l.14 1.93-.14 1.03c-.88 5.88-2.37 11.94-3.44 17.84l-.44 1.04-1.43 1.93h4.16l.14-.9c.58-3.04 1.27-6.1 1.85-9.14.25-2.1 1.01-4.42 1.28-6.48 1.37 2.93 4.48 13.29 5.16 16.52 1.83 0 3.81-.15 5.72-.15.33-2.63 3.13-14.92 4.3-17.11.38 1.74.64 3.47 1 5.17.54 2.62 1.15 5.45 1.57 8.11l.43 2.51-1 1.02h7.44c-.57-.79-1-1.52-1.28-2.2l-.14-.74c-1.33-7.28-2.96-15.14-4.58-22.42l-.29-1.76h-4.43c-.57 0-.57.83 0 2.5 0 .29-.1.79-.29 1.47-1.28 4.69-2.3 9.48-3.58 14.16-.21 1.09-.71 1.98-.71 3.1-2.27-7.03-4.1-14.19-6.3-21.24h-6.29zm29.86.45c.37.66.64 1.28.83 1.85v23.58l-.97 1.55h8.43l-.14-.28c-.55-.76-.92-1.52-1.1-2.27V57.44c.27-.85.64-1.52 1.1-1.99h-8.15zm9.06.51c.48.66.86 1.33 1.15 2v21.97c-.09.86-.33 1.63-.72 2.29h5.46c-.38-1.05-.62-1.96-.72-2.72V64c2.81 4.68 6.35 9.71 9.34 14.5 1.99 3.14 4.71 4.27 8.47 3.59V61.13c-.1-2.3-.01-4.17.28-5.61h-4.3c.28.77.47 1.4.57 1.86v17.95l-.28-.43c-3.91-5.15-10.07-13.93-12.78-19.38h-6.46v.44zm24.42-.37c.67 1.05 1.01 2.05 1.01 3.01v22.21l-1.01 1.57 15.04.14c.73-1.32 1.97-3.21 2.44-4.58-2.58.63-7.94.88-10.18.42v-9.74l8.6-.14-.44-1c-.66-1.34-1.14-2.2-1.43-2.59-1.61 0-5.35.25-6.74-.14v-5.3c1.24-.29 5.49-.25 7.01 0l2.15.44-.28-.87-2.01-3.43h-14.18zm18.52 1.06c1.01.55 1.51 1.38 1.51 2.48v21.39c-.46.83-.92 1.47-1.38 1.92h9.33c-.64-.92-1.09-1.79-1.36-2.6l.13-21.41c8.48 0 9.2 10.15 1.09 11.52l.14.56c1.64 2.25 3.03 4.89 4.53 7.27.74 1.37 1.51 2.42 2.33 3.15 2.93 1.37 5.99 1.88 9.19 1.51l-.41-.41c-2.09-2.11-7.2-9.39-8.51-11.94 13.68-13.79-12.2-16.8-16.46-13.85l-.14.41z"/><path class="cfil1" d="M261.96 58.19l-.47.89-2.05 5.81-.24.89-1.6 4.46-.23.89-.47.89-2.29 6.47c-.45 1.63-.99 2.97-1.6 4.01h6.88l-.45-1.33 2.29-6.92h6.87c1.31 2.55 1.91 5.08 3.21 7.36l-.45.89h9.4c-3.84-6.48-7.81-20.23-10.32-26.98h-8.71l.23 2.68zm5.35 13.5h-5.12l2.44-8.37 2.69 8.37zm14.31-16.09c.37.66.64 1.27.83 1.85v23.53l-.96 1.55h8.41l-.14-.28c-.55-.75-.92-1.51-1.1-2.27v-22.4c.27-.85.64-1.51 1.1-1.98h-8.13z"/><path class="cfil0" d="M312.01 50.31l-174.03 1.95-1.5-.02-1.5-.02-1.51-.02-1.51-.02-1.51-.02-1.53-.02-1.53-.03-1.53-.02-1.54-.02-1.53-.02-1.55-.02-1.55-.02-1.57-.02-1.57-.03-1.56-.02-1.58-.02-1.58-.02-1.59-.03-1.6-.02-1.59-.02-1.59-.03-1.62-.02-1.6-.02-1.63-.02-1.64-.03-1.62-.02-1.63-.02-1.65-.03-1.63-.02-1.66-.02-1.66-.02-1.67-.03-1.78-.02-1.77-.03-1.79-.02-1.81-.03-1.79-.03-1.8-.02-1.84-.03-1.82-.03-1.82-.02-1.84-.03-1.86-.02-1.85-.03-1.86-.03-1.86-.03-1.88-.02-1.89-.03-1.89-.03-1.9-.02-1.91-.03-1.9-.03-1.92-.02-1.92-.03-1.95-.03-1.94-.02-1.95-.03-1.95-.03-1.97-.03-1.96-.03-1.99-.02-1.98-.03-2.01-.03-1.99-.03 161.7-2.12 2.24.03 2.21.03 2.21.03 2.2.03 2.19.03 2.18.03 2.17.03 2.18.03 2.15.03 2.15.03 2.14.04 2.13.02 2.13.03 2.11.03 2.11.04 2.1.02 2.1.04 2.07.03 2.09.02 2.07.03 2.06.03 2.04.03 2.05.03 2.03.03 2.04.03 2.02.03 2.01.03 2 .03 2 .02 2 .03 1.97.03 1.98.03 1.84.03 1.84.02 1.84.03 1.83.02 1.82.03 1.82.03 1.81.02 1.8.03 1.8.03 1.8.02 1.78.03 1.78.02 1.78.02 1.76.03 1.77.02 1.75.03 1.76.02 1.75.03 1.74.02 1.72.03 1.73.02 1.72.02 1.72.03 1.7.02 1.71.02 1.69.03 1.69.02 1.69.03 1.68.02 1.67.02 1.67.03z"/><path class="cfil1" d="M15.35 94.02h1.68l-2.55 9.48H12.8l2.55-9.48zm3.37 2.33h1.64l-.24.93c.29-.29.6-.54.92-.76.33-.21.72-.32 1.18-.32.53 0 .96.14 1.28.42.32.28.54.62.67 1.03.32-.44.7-.79 1.14-1.05.45-.26.96-.4 1.54-.4.65 0 1.17.19 1.55.58.38.39.58.91.58 1.56 0 .19-.03.4-.07.62-.05.22-.1.44-.16.64l-1.04 3.9h-1.64l1.07-3.96c.03-.12.05-.24.07-.37.02-.13.03-.24.03-.34 0-.36-.1-.64-.3-.83-.2-.19-.49-.29-.87-.29-.45 0-.85.16-1.19.49-.34.33-.58.76-.71 1.29l-1.08 4.01h-1.64l1.07-3.96c.03-.12.05-.24.07-.37.02-.13.03-.24.03-.34 0-.36-.1-.64-.3-.83-.2-.19-.49-.29-.87-.29-.46 0-.86.16-1.19.49-.33.33-.57.76-.72 1.29l-1.08 4.01h-1.64l1.91-7.15zm15.16 5.91c.33 0 .65-.07.95-.22.3-.15.56-.35.79-.62.23-.26.4-.57.53-.91.13-.35.2-.72.2-1.12 0-.55-.15-.98-.46-1.3-.31-.32-.72-.47-1.23-.47-.33 0-.64.08-.95.23-.31.15-.59.36-.83.62s-.43.56-.58.9c-.14.34-.22.7-.22 1.08 0 .26.04.5.13.72.09.22.21.41.37.58.16.16.35.29.57.38.22.09.47.14.74.14zm-2.28-5.91h1.64l-.26.95c.33-.33.67-.59 1.04-.79.37-.2.78-.3 1.25-.3.4 0 .77.07 1.11.21.34.14.64.34.89.61.25.27.44.59.58.97.14.38.21.8.21 1.27 0 .63-.11 1.22-.33 1.75-.22.54-.52 1-.89 1.39-.37.39-.79.69-1.27.91-.48.22-.98.33-1.49.33-.63 0-1.14-.14-1.52-.41-.38-.28-.68-.61-.89-1.01l-.92 3.44h-1.64l2.49-9.32zm11.12 5.89c.34 0 .66-.08.96-.24.3-.16.56-.37.78-.63.22-.26.39-.55.52-.87.13-.33.19-.65.19-.98 0-.6-.17-1.07-.51-1.4-.34-.33-.78-.49-1.32-.49-.35 0-.68.08-.98.24-.3.16-.56.37-.78.64-.22.26-.39.56-.51.88-.12.33-.18.65-.18.96 0 .61.17 1.07.51 1.4.34.33.78.49 1.32.49zm-.09 1.42c-.52 0-.98-.08-1.39-.24-.41-.16-.76-.39-1.06-.68-.29-.29-.52-.64-.68-1.04-.16-.4-.24-.83-.24-1.3 0-.54.11-1.07.33-1.57a4.357 4.357 0 012.22-2.27c.51-.24 1.05-.35 1.63-.35.51 0 .98.08 1.39.24.41.16.76.39 1.06.68.29.29.52.64.68 1.04.16.4.24.84.24 1.31 0 .54-.11 1.07-.33 1.57-.22.51-.52.95-.9 1.34-.38.39-.82.7-1.33.93-.51.23-1.04.35-1.61.35zm6.76-7.31h1.64l-.42 1.61c.4-.57.84-1.01 1.31-1.33.48-.32 1.04-.46 1.68-.41l-.46 1.73h-.09a2.923 2.923 0 00-1.95.72c-.28.24-.52.54-.74.9-.22.36-.39.79-.53 1.29l-.72 2.65h-1.64l1.91-7.15zm6.26 7.27c-.58 0-1.02-.13-1.33-.38-.31-.25-.46-.6-.46-1.03 0-.28.04-.56.12-.83l.96-3.63h-.91l.38-1.41h.91l.53-1.96h1.64l-.53 1.96h1.91l-.38 1.41h-1.91l-.92 3.45c-.02.07-.03.14-.04.22-.01.07-.01.14-.01.19 0 .37.24.56.72.56.33 0 .68-.08 1.04-.23l-.38 1.42c-.38.17-.83.26-1.34.26zm8.93-4.23c.05-.12.07-.28.07-.49 0-.37-.11-.69-.34-.96-.23-.27-.59-.41-1.08-.41-.56 0-1.05.17-1.46.52-.42.35-.71.79-.89 1.33h3.71zm-3.89 1.12c.01.54.17.98.48 1.31.31.33.77.49 1.37.49.34 0 .66-.06.94-.17.28-.11.58-.29.89-.52l.79 1.04c-.34.28-.74.51-1.18.7-.44.19-.98.28-1.6.28-.5 0-.95-.07-1.35-.22-.4-.14-.74-.35-1.02-.62s-.5-.6-.65-.99c-.15-.39-.23-.82-.23-1.3 0-.52.1-1.05.31-1.56.2-.52.49-.98.87-1.39.37-.41.82-.74 1.33-1 .51-.25 1.08-.38 1.71-.38.46 0 .87.07 1.22.22.35.14.65.34.89.59.24.25.43.54.56.88.13.34.19.7.19 1.09 0 .25-.03.51-.08.77s-.13.52-.23.78h-5.2zm7.95-4.17h1.64l-.42 1.61c.4-.57.84-1.01 1.31-1.33.48-.32 1.04-.46 1.68-.41l-.46 1.73h-.09a2.923 2.923 0 00-1.95.72c-.28.24-.52.54-.74.9-.22.36-.39.79-.53 1.29l-.72 2.65h-1.64l1.91-7.15zm11.11 5.91c.7 0 1.41-.28 2.13-.84l-1.67-2.32c-.7.22-1.2.5-1.5.85-.31.35-.46.71-.46 1.09 0 .36.13.65.39.88.26.23.63.34 1.12.34zm1.18-4.55c.38-.12.69-.24.93-.37.24-.13.44-.25.58-.38.14-.13.25-.26.3-.39.06-.14.09-.28.09-.43 0-.25-.09-.48-.28-.67-.19-.19-.45-.29-.79-.29a1.27 1.27 0 00-.93.38c-.12.12-.21.25-.27.4-.06.15-.09.31-.09.48 0 .18.03.37.1.58.07.2.19.44.36.7zm1.71 4.77c-.47.38-.95.67-1.44.87-.49.2-1.03.3-1.62.3-.42 0-.82-.06-1.17-.17a2.7 2.7 0 01-.92-.49c-.26-.21-.46-.47-.61-.78-.15-.31-.22-.66-.22-1.06 0-.63.23-1.22.69-1.76.46-.54 1.19-.97 2.19-1.27-.17-.29-.3-.58-.4-.86-.09-.28-.14-.56-.14-.83 0-.34.07-.67.2-.98.14-.31.33-.58.58-.82.25-.23.56-.42.91-.56.35-.14.74-.2 1.16-.2.37 0 .71.05 1.02.16.31.11.57.26.79.45.22.19.39.42.51.69a2.118 2.118 0 01.05 1.58c-.09.24-.23.47-.44.7-.21.23-.49.44-.83.65-.35.21-.78.39-1.31.56l1.33 1.83c.23-.24.44-.51.65-.81.21-.29.42-.61.62-.94l1.04.7c-.51.8-1.03 1.49-1.54 2.06l1.02 1.41-1.23.79-.88-1.22zm9.94-8.45h6.96l-.41 1.5h-5.3l-.66 2.47h4.7l-.41 1.48h-4.7l-.68 2.53h5.38l-.41 1.5h-7.03l2.55-9.48zm9.18 5.76l-1.65-3.43h1.76l1.02 2.29 2.11-2.29h1.98l-3.47 3.59 1.69 3.56h-1.76l-1.07-2.44-2.26 2.44h-1.99l3.64-3.72zm8.97 2.48c.33 0 .65-.07.95-.22.3-.15.56-.35.79-.62.23-.26.4-.57.53-.91.13-.35.2-.72.2-1.12 0-.55-.15-.98-.46-1.3-.31-.32-.72-.47-1.23-.47-.33 0-.64.08-.95.23-.31.15-.59.36-.83.62s-.43.56-.58.9c-.14.34-.22.7-.22 1.08 0 .26.04.5.13.72.09.22.21.41.37.58.16.16.35.29.57.38.22.09.47.14.74.14zm-2.28-5.91h1.64l-.26.95c.33-.33.67-.59 1.04-.79.37-.2.78-.3 1.25-.3.4 0 .77.07 1.11.21.34.14.64.34.89.61.25.27.44.59.58.97.14.38.21.8.21 1.27 0 .63-.11 1.22-.33 1.75-.22.54-.52 1-.89 1.39-.37.39-.79.69-1.27.91-.48.22-.98.33-1.49.33-.63 0-1.14-.14-1.52-.41-.38-.28-.68-.61-.89-1.01l-.92 3.44h-1.64l2.49-9.32zm11.12 5.89c.34 0 .66-.08.96-.24.3-.16.56-.37.78-.63.22-.26.39-.55.52-.87.13-.33.19-.65.19-.98 0-.6-.17-1.07-.51-1.4-.34-.33-.78-.49-1.32-.49-.35 0-.68.08-.98.24-.3.16-.56.37-.78.64-.22.26-.39.56-.51.88-.12.33-.18.65-.18.96 0 .61.17 1.07.51 1.4.34.33.78.49 1.32.49zm-.09 1.42c-.51 0-.98-.08-1.39-.24-.41-.16-.76-.39-1.06-.68-.29-.29-.52-.64-.68-1.04-.16-.4-.24-.83-.24-1.3 0-.54.11-1.07.33-1.57.22-.51.52-.95.89-1.34.38-.39.82-.7 1.33-.93.51-.24 1.05-.35 1.63-.35.51 0 .98.08 1.39.24.41.16.76.39 1.06.68.29.29.52.64.68 1.04.16.4.24.84.24 1.31 0 .54-.11 1.07-.33 1.57-.22.51-.52.95-.9 1.34-.38.39-.82.7-1.33.93-.51.23-1.04.35-1.61.35zm6.76-7.31h1.64l-.42 1.61c.4-.57.84-1.01 1.31-1.33.48-.32 1.04-.46 1.68-.41l-.46 1.73h-.09a2.923 2.923 0 00-1.95.72c-.28.24-.52.54-.74.9-.22.36-.39.79-.53 1.29l-.72 2.65h-1.64l1.91-7.15zm6.26 7.27c-.58 0-1.02-.13-1.33-.38-.31-.25-.46-.6-.46-1.03 0-.28.04-.56.12-.83l.96-3.63h-.91l.38-1.41h.91l.53-1.96h1.64l-.53 1.96h1.91l-.38 1.41h-1.91l-.92 3.45c-.02.07-.03.14-.04.22-.01.07-.01.14-.01.19 0 .37.24.56.72.56.33 0 .68-.08 1.04-.23l-.38 1.42c-.38.17-.83.26-1.34.26zm8.93-4.23c.05-.12.07-.28.07-.49 0-.37-.11-.69-.34-.96-.23-.27-.59-.41-1.08-.41-.56 0-1.05.17-1.46.52-.42.35-.71.79-.89 1.33h3.71zm-3.89 1.12c.01.54.17.98.48 1.31.31.33.77.49 1.37.49.34 0 .66-.06.94-.17.28-.11.58-.29.89-.52l.79 1.04c-.34.28-.74.51-1.18.7-.44.19-.98.28-1.6.28-.5 0-.95-.07-1.35-.22-.4-.14-.74-.35-1.02-.62s-.5-.6-.65-.99c-.15-.39-.23-.82-.23-1.3 0-.52.1-1.05.3-1.56.2-.52.49-.98.87-1.39.37-.41.82-.74 1.33-1 .51-.25 1.08-.38 1.71-.38.46 0 .87.07 1.22.22.35.14.65.34.89.59.24.25.43.54.56.88.13.34.19.7.19 1.09 0 .25-.03.51-.08.77s-.13.52-.23.78h-5.2zm7.95-4.17h1.64l-.42 1.61c.4-.57.84-1.01 1.31-1.33.48-.32 1.04-.46 1.68-.41l-.46 1.73h-.09a2.923 2.923 0 00-1.95.72c-.28.24-.52.54-.74.9-.22.36-.39.79-.53 1.29l-.72 2.65h-1.64l1.91-7.15zm11.73 5.89c.34 0 .66-.08.96-.24.3-.16.56-.37.78-.63.22-.26.39-.55.52-.87.13-.33.19-.65.19-.98 0-.6-.17-1.07-.51-1.4-.34-.33-.78-.49-1.32-.49-.35 0-.68.08-.98.24-.3.16-.56.37-.78.64-.22.26-.39.56-.51.88-.12.33-.18.65-.18.96 0 .61.17 1.07.51 1.4.34.33.78.49 1.32.49zm-.09 1.42c-.51 0-.98-.08-1.39-.24-.41-.16-.76-.39-1.06-.68-.29-.29-.52-.64-.68-1.04-.16-.4-.24-.83-.24-1.3 0-.54.11-1.07.33-1.57.22-.51.52-.95.89-1.34.38-.39.82-.7 1.33-.93.51-.24 1.05-.35 1.63-.35.51 0 .98.08 1.39.24.41.16.76.39 1.06.68.29.29.52.64.68 1.04.16.4.24.84.24 1.31 0 .54-.11 1.07-.33 1.57-.22.51-.52.95-.9 1.34-.38.39-.82.7-1.33.93-.51.23-1.04.35-1.61.35zm6.77-5.91h-.91l.38-1.41h.91l.14-.58c.21-.77.54-1.33 1-1.69.46-.36 1.03-.54 1.73-.54.29 0 .55.02.79.07.23.05.44.1.62.18l-.37 1.37a2.66 2.66 0 00-1-.22c-.61 0-1 .33-1.18 1l-.11.41h1.98l-.38 1.41h-1.95l-1.54 5.74h-1.64l1.54-5.74zm12.79 5.91c-.56 0-1.1-.09-1.62-.26s-.98-.43-1.39-.77c-.41-.34-.73-.76-.98-1.27-.24-.51-.37-1.1-.37-1.78 0-.73.15-1.44.45-2.13.3-.69.71-1.3 1.23-1.84.52-.53 1.14-.96 1.86-1.28.72-.32 1.5-.48 2.34-.48.5 0 .94.05 1.33.14.39.09.74.21 1.05.37.31.16.57.34.79.54.22.2.41.41.58.63l-1.25 1.06a6.61 6.61 0 00-.45-.47 2.87 2.87 0 00-.57-.39c-.21-.11-.45-.19-.71-.26-.26-.06-.56-.09-.89-.09-.57 0-1.1.12-1.59.35-.49.23-.92.54-1.27.92-.36.38-.64.83-.84 1.32-.2.5-.3 1.02-.3 1.56 0 .42.07.79.2 1.11.14.32.33.6.57.82.24.22.53.39.86.51.33.12.69.18 1.08.18.43 0 .82-.05 1.14-.15.33-.1.62-.21.86-.34l.58-2.02h-2.42l.39-1.45h4.04l-1.29 4.54c-.49.29-1 .51-1.55.68-.55.16-1.17.24-1.86.24zm11.28-4.27c.05-.12.07-.28.07-.49 0-.37-.11-.69-.34-.96-.23-.27-.59-.41-1.08-.41-.56 0-1.05.17-1.46.52-.42.35-.71.79-.89 1.33h3.71zm-3.89 1.12c.01.54.17.98.48 1.31.31.33.77.49 1.37.49.34 0 .66-.06.94-.17.28-.11.58-.29.89-.52l.79 1.04c-.34.28-.74.51-1.18.7-.44.19-.98.28-1.6.28-.5 0-.95-.07-1.35-.22-.4-.14-.74-.35-1.02-.62s-.5-.6-.65-.99c-.15-.39-.23-.82-.23-1.3 0-.52.1-1.05.3-1.56.2-.52.49-.98.87-1.39.37-.41.82-.74 1.33-1 .51-.25 1.08-.38 1.71-.38.46 0 .87.07 1.22.22.35.14.65.34.89.59.24.25.43.54.56.88.13.34.19.7.19 1.09 0 .25-.03.51-.08.77s-.13.52-.23.78h-5.2zm7.95-4.17h1.64l-.24.93c.29-.29.6-.54.92-.76.33-.21.72-.32 1.18-.32.53 0 .96.14 1.28.42.32.28.54.62.67 1.03.32-.44.7-.79 1.14-1.05.45-.26.96-.4 1.54-.4.65 0 1.17.19 1.55.58.38.39.58.91.58 1.56 0 .19-.03.4-.07.62-.05.22-.1.44-.16.64l-1.04 3.9h-1.64l1.07-3.96c.03-.12.05-.24.07-.37.02-.13.03-.24.03-.34 0-.36-.1-.64-.3-.83-.2-.19-.49-.29-.87-.29-.45 0-.85.16-1.19.49-.34.33-.58.76-.71 1.29l-1.08 4.01h-1.64l1.07-3.96c.03-.12.05-.24.07-.37.02-.13.03-.24.03-.34 0-.36-.1-.64-.3-.83-.2-.19-.49-.29-.87-.29-.46 0-.86.16-1.19.49-.33.33-.57.76-.72 1.29l-1.08 4.01h-1.64l1.91-7.15zm13.82 7.31c-.54 0-1.1-.11-1.67-.32-.57-.21-1.07-.54-1.48-.97l.98-1c.38.38.77.64 1.16.79.4.14.78.22 1.14.22.33 0 .6-.08.82-.23.22-.15.33-.36.33-.62 0-.18-.08-.34-.25-.47-.16-.13-.43-.27-.79-.43-.3-.12-.57-.24-.82-.37s-.47-.27-.65-.43c-.18-.16-.32-.34-.42-.54-.1-.2-.16-.44-.16-.71a2.217 2.217 0 01.76-1.68c.24-.21.54-.38.88-.5.34-.12.73-.18 1.16-.18.57 0 1.09.1 1.58.3.48.2.87.44 1.17.7l-.91 1.06c-.66-.52-1.31-.79-1.96-.79-.35 0-.62.08-.81.23a.71.71 0 00-.28.58c0 .18.09.34.26.47.18.14.47.29.87.46.27.12.52.24.76.37s.44.27.62.42c.18.15.31.33.42.53.1.2.16.43.16.69 0 .37-.07.7-.22 1-.14.3-.35.55-.61.77-.26.21-.56.37-.91.49-.35.11-.73.17-1.13.17zm10.88-1.22c.25 0 .5-.05.73-.14.24-.09.45-.21.64-.37s.36-.34.5-.54.24-.41.29-.63l.08-.31c-.23-.07-.47-.14-.74-.19-.27-.05-.56-.08-.88-.08-.55 0-.98.12-1.29.36-.31.24-.47.55-.47.93 0 .32.1.56.3.72.2.17.48.25.83.25zm-.64 1.21c-.31 0-.59-.05-.86-.14a2.3 2.3 0 01-.69-.39c-.19-.17-.35-.37-.46-.62-.11-.24-.17-.51-.17-.81 0-.42.08-.78.24-1.1.16-.32.38-.59.66-.81.28-.22.62-.38 1.01-.49.39-.11.81-.17 1.27-.17.4 0 .77.03 1.13.1.36.06.69.15 1.01.26l.04-.15a2.046 2.046 0 00.08-.56.93.93 0 00-.37-.77c-.24-.19-.64-.29-1.19-.29-.36 0-.71.04-1.04.11-.33.07-.64.17-.93.28l-.27-1.35a6.572 6.572 0 012.56-.49c.95 0 1.66.19 2.15.58.48.39.72.93.72 1.64 0 .17-.01.34-.04.5-.03.16-.06.33-.11.51l-1.07 4.02h-1.61l.24-.93c-.32.33-.66.6-1.03.79-.37.19-.8.29-1.29.29zm7.52-7.3h1.64l-.24.93c.29-.29.61-.54.95-.76a2.3 2.3 0 011.21-.32c.67 0 1.2.19 1.59.58.39.38.59.91.59 1.56 0 .19-.02.4-.07.62-.05.22-.1.44-.15.64l-1.03 3.9h-1.64l1.06-3.96c.04-.12.06-.24.08-.37.02-.13.03-.24.03-.34 0-.36-.11-.64-.33-.83-.22-.19-.52-.29-.92-.29-.46 0-.87.16-1.22.49-.35.33-.6.76-.74 1.29l-1.08 4.01h-1.64l1.91-7.15zm10.4 5.91c.33 0 .64-.08.95-.23.31-.15.59-.36.83-.62s.43-.56.58-.91c.14-.34.22-.7.22-1.08 0-.26-.05-.5-.14-.72-.09-.22-.21-.41-.37-.57-.16-.16-.35-.28-.57-.37-.22-.09-.47-.14-.74-.14-.33 0-.65.07-.95.22-.3.15-.56.35-.79.61-.23.26-.4.56-.53.91s-.2.73-.2 1.12c0 .54.16.97.47 1.29.31.32.72.48 1.24.48zm-.64 1.39c-.4 0-.77-.07-1.1-.21-.34-.14-.63-.34-.89-.61-.25-.27-.45-.59-.59-.96-.14-.37-.21-.8-.21-1.28 0-.63.11-1.22.33-1.75.22-.54.52-1 .89-1.39.37-.39.79-.69 1.27-.91.48-.22.98-.33 1.49-.33.63 0 1.14.14 1.52.41.38.28.68.61.89 1.01l1.07-4.01h1.64l-2.64 9.89h-1.64l.26-.95c-.33.32-.67.59-1.04.79-.37.2-.78.3-1.25.3zM245.9 94h1.69l1.65 4.48L253.3 94h1.91l-2.55 9.48h-1.69l1.83-6.8-4.17 4.47h-.05l-1.75-4.44-1.81 6.77h-1.67L245.9 94zm11.04 2.33h1.64l-1.92 7.15h-1.64l1.92-7.15zm.65-2.65h1.77l-.43 1.56h-1.76l.42-1.56zm3.12 2.65h1.64l-.24.93c.29-.29.61-.54.95-.76a2.3 2.3 0 011.21-.32c.67 0 1.2.19 1.59.58.39.38.59.91.59 1.56 0 .19-.02.4-.07.62-.05.22-.1.44-.15.64l-1.03 3.9h-1.64l1.06-3.96c.04-.12.06-.24.08-.37.02-.13.03-.24.03-.34 0-.36-.11-.64-.33-.83-.22-.19-.52-.29-.92-.29-.46 0-.87.16-1.22.49-.35.33-.6.76-.74 1.29l-1.08 4.01h-1.64l1.91-7.15zm12.39 3.07c.05-.12.07-.28.07-.49 0-.37-.11-.69-.34-.96-.23-.27-.59-.41-1.08-.41-.56 0-1.05.17-1.46.52-.42.35-.71.79-.89 1.33h3.71zm-3.89 1.12c.01.54.17.98.48 1.31.31.33.77.49 1.37.49.34 0 .66-.06.94-.17.28-.11.58-.29.89-.52l.79 1.04c-.34.28-.74.51-1.18.7-.44.19-.98.28-1.6.28-.5 0-.95-.07-1.35-.22-.4-.14-.74-.35-1.02-.62s-.5-.6-.65-.99c-.15-.39-.23-.82-.23-1.3 0-.52.1-1.05.31-1.56.2-.52.49-.98.87-1.39.37-.41.82-.74 1.33-1 .51-.25 1.08-.38 1.71-.38.46 0 .87.07 1.22.22.35.14.65.34.89.59.24.25.43.54.56.88.13.34.19.7.19 1.09 0 .25-.03.51-.08.77s-.13.52-.23.78h-5.2zm7.95-4.17h1.64l-.42 1.61c.4-.57.84-1.01 1.31-1.33.48-.32 1.04-.46 1.68-.41l-.46 1.73h-.09a2.923 2.923 0 00-1.95.72c-.28.24-.52.54-.74.9-.22.36-.39.79-.53 1.29l-.72 2.65h-1.64l1.91-7.15zm6.6 6.09c.25 0 .5-.05.73-.14.23-.09.45-.21.64-.37s.36-.34.5-.54.24-.41.29-.63l.08-.31c-.23-.07-.47-.14-.75-.19-.27-.05-.56-.08-.88-.08-.55 0-.98.12-1.29.36-.31.24-.47.55-.47.93 0 .32.1.56.3.72.2.17.48.25.83.25zm-.64 1.21c-.31 0-.59-.05-.86-.14a2.3 2.3 0 01-.69-.39c-.19-.17-.35-.37-.46-.62-.11-.24-.17-.51-.17-.81 0-.42.08-.78.24-1.1.16-.32.38-.59.66-.81.28-.22.62-.38 1.01-.49.39-.11.81-.17 1.27-.17.4 0 .77.03 1.13.1.36.06.69.15 1.01.26l.04-.15a2.046 2.046 0 00.08-.56.93.93 0 00-.37-.77c-.24-.19-.64-.29-1.19-.29-.36 0-.71.04-1.04.11-.33.07-.64.17-.93.28l-.27-1.35a6.572 6.572 0 012.56-.49c.95 0 1.66.19 2.15.58.48.39.72.93.72 1.64 0 .17-.01.34-.04.5-.03.16-.06.33-.11.51l-1.07 4.02h-1.61l.24-.93c-.32.33-.66.6-1.03.79-.37.19-.8.29-1.29.29zm8.36-10.04h1.64l-2.65 9.89h-1.64l2.65-9.89zm3.98 10.05c-.54 0-1.1-.11-1.67-.32-.57-.21-1.07-.54-1.48-.97l.98-1c.38.38.77.64 1.16.79.4.14.78.22 1.14.22.33 0 .6-.08.82-.23.22-.15.33-.36.33-.62 0-.18-.08-.34-.25-.47-.16-.13-.43-.27-.79-.43-.3-.12-.57-.24-.82-.37s-.47-.27-.65-.43c-.18-.16-.32-.34-.42-.54-.1-.2-.16-.44-.16-.71a2.217 2.217 0 01.76-1.68c.24-.21.54-.38.88-.5.34-.12.73-.18 1.16-.18.57 0 1.09.1 1.58.3.48.2.87.44 1.17.7l-.91 1.06c-.66-.52-1.31-.79-1.96-.79-.35 0-.62.08-.81.23a.71.71 0 00-.28.58c0 .18.09.34.26.47.18.14.47.29.87.46.27.12.52.24.76.37s.44.27.62.42c.18.15.31.33.42.53.1.2.16.43.16.69 0 .37-.07.7-.22 1-.14.3-.35.55-.61.77-.26.21-.56.37-.91.49-.35.11-.73.17-1.13.17z"/></g></g></symbol><symbol viewBox="0 0 466.99 158.16" shape-rendering="geometricPrecision" text-rendering="geometricPrecision" image-rendering="optimizeQuality" fill-rule="evenodd" clip-rule="evenodd" id="logo_dourado" xmlns="http://www.w3.org/2000/svg"><defs><linearGradient id="did0" gradientUnits="userSpaceOnUse" x1="244.33" y1="123.02" x2="263.59" y2="29.3"><stop offset="0" stop-color="#b2803c"/><stop offset=".071" stop-color="#b2803c"/><stop offset=".831" stop-color="#f3e37d"/><stop offset="1" stop-color="#f3e37d"/></linearGradient><linearGradient id="did1" gradientUnits="userSpaceOnUse" xlink:href="#did0" x1="121.18" y1="38.03" x2="334.87" y2="38.1"/><style>.dfil2{fill:#c69f49;fill-rule:nonzero}</style></defs><g id="dCamada_x0020_1"><g id="d_1881140622288"><path d="M121.23 73.78c-.78-9.12 5.28-15.88 11.83-22.34 4.02.43 7.57.8 11.6 1.23 1.88-3.71 3.76-7.41 5.64-11.11 1.83-.98 3.65-1.96 5.48-2.94 2.12.93 4.23 1.85 6.35 2.78l8.66-10.16c4.95 1.17 9.9 2.33 14.85 3.5 1.97-5.44 3.95-10.88 5.92-16.32C202.08 8.71 202.25-.17 207.77 0h6.19l32.15 28.04c4.22-4.06 8.45-8.12 12.67-12.18 17.23 9.08 26.28 12.65 41.68 19.63 5.05 3.5 10.11 6.99 15.16 10.49 6.27 8.39 12.54 16.79 18.81 25.18.13.82.26 1.64.4 2.46l.02 2.24-213.5.22c-.23-.88-.08-1.01-.02-1.29.04-.18.05-.44-.1-1.01zm67.95-.49c-.33-4.54 1.64-10.53 4.17-13.48 3.19-3.72 7.3-4.79 12.99-6.52-9.49-1.92-10.62-6.29-3.17-13.18-1.22-2.33-2.43-4.66-3.65-6.99 3.13-.4 4.67-3.24 3.68-9.72-.21-1.36-.19-1.06.44-2.31 1.33-2.66 2.66-5.31 3.99-7.97-1.06-3.6-1.52-7.21-2.58-10.81l4.23-.06c1.47-.02 2.92.07 4.18-.08 10.37 9.21 19.69 18.15 30.06 27.36l-2.07 7.1c-3.55 3.6-7.1 7.2-10.64 10.8 6.25 3.44 10.54 16.69 15.76 19.46 4.63 1.15 10.46-3.41 11.4-2.93 1.48.74 2.96 1.48 4.45 2.22-1.96-4.24-3.91-8.47-5.87-12.71 2.01-4.5 5.38-8.84 7.39-13.34l-2.62-7.94c.9-1.27 2.02-3.2 2.92-4.47-2.75.06-4.67-1.29-4.37-3.49.14-1.04.36-1.48 1.11-2.08 1.23-.97 1.94-1.83 3.36-2.83 9.69 5.93 19.09 12.18 28.78 18.11.64-.69 1.55-1.69 2.18-2.38 5.35 3.39 10.69 6.78 16.04 10.17 7.3 8.58 14.6 17.16 21.91 25.74 1.08 1.43 1.3 2.17-1.11 2.22-11.06 0-22.13-.01-33.19-.01-2.24-2.08-5.41-2.9-8.73-3.5 1.69-.63 3.39-1.27 5.08-1.9-1.96-1.91-3.78-3.53-6.19-5.22-3.27-.85-5.93-1.05-8.89-1.61-.53 1.59-1.28 3.63-1.81 5.22-3.86.85-7.51 1.23-11.38 2.08 2.86 1.54 5.72 3.07 8.57 4.61-12.28.15-24.56.31-36.84.46-2.92-2.49-7.2-2.32-10.8-4.61-1.69 1.38-2.76 2.8-3.18 4.29-11.86.1-23.72.2-35.57.31zm-61.61.12c2.06-2.52 3.57-5.67 4.79-9.15v-9.99c5.07 1.93 10.13 3.85 15.2 5.78 2.05-.53 3.72-1.48 4.93-2.95-.09-3-.19-6.01-.28-9.01 1.13-2.2 1.92-4.41 3.04-6.62 2.3.61 4.94 1.22 7.23 1.83.58 15.74 3.88 22.12 7.45 26.48.99-6.43 1.98-13.85 2.96-20.28l-1.69-2.53c-.67-1.01-.7-.72.21-1.54 1.2-1.08 2.4-2.16 3.6-3.25-2.87-2.12-3.57-5.09-2.95-8.59 4.74 1.36 9.48 2.72 14.22 4.09 2.34 4.36 4.69 8.73 7.03 13.09-.09 1.03-.19 2.06-.28 3.1-2.35 2.67-4.69 5.35-7.04 8.02.98 1.64 1.97 3.29 2.95 4.93l-9.43 6.61c-8.92.09-17.47.18-26.39.27-1.06-2.95-3.7-4.62-9.97-.14-5.3-.05-10.29-.09-15.59-.14zm93.56-28.29c1.15 2.34 2.3 4.69 3.45 7.03l6.36-9.33c-2.92-7.04-5.84-14.08-8.77-21.13.09 5.4 2.2 11.08 4.52 16.8-1.85 2.21-3.71 4.42-5.56 6.63z" fill="url(#did1)"/><path d="M49.72 56.4c-6.1 2.96-29.27 1.5-37.26 1.55-2.78-.22-5.2-.1-7.27.35C1.54 61.27.01 63.44.01 68l2.43-.71 14.15.35v50.47c-.45 2.07-1.25 3.92-2.4 5.54l2.4-.35 18.67.35c-1.39-1.86-2.42-4.28-3.11-7.26V67.65l1.03-.35h10.37c3.59-2.72 5.64-6 6.56-9.67l-.39-1.22z" fill="#c69f49"/><path class="dfil2" d="M44.69 83.12c1 1.57 1.51 3.07 1.51 4.5v33.21l-1.51 2.35 22.49.21c1.09-1.97 2.95-4.81 3.65-6.85-3.86.95-11.87 1.32-15.22.63v-14.56l12.86-.22-.65-1.49c-.99-2-1.71-3.29-2.14-3.87-2.41 0-8 .38-10.07-.21v-7.93c1.85-.44 8.21-.37 10.49 0l3.21.65-.42-1.3-3.01-5.13H44.67zm29.63 2.02c1.5.82 2.24 2.05 2.24 3.67v31.69c-.68 1.23-1.36 2.18-2.04 2.85h13.81c-.94-1.36-1.61-2.65-2.02-3.85l.2-31.71c12.56 0 13.63 15.03 1.62 17.07l.2.83c2.43 3.33 4.49 7.25 6.71 10.76 1.09 2.03 2.24 3.59 3.45 4.67 4.34 2.03 8.87 2.78 13.61 2.24l-.61-.61c-3.09-3.12-10.67-13.91-12.6-17.69 20.27-20.43-18.07-24.89-24.37-20.52l-.2.61zm39.63-.09c1.5.82 2.25 2.06 2.25 3.69v31.86c-.69 1.23-1.37 2.19-2.05 2.86h13.89c-.95-1.37-1.62-2.66-2.03-3.87l.2-31.88c12.62 0 13.7 15.11 1.63 17.16l.2.83c2.45 3.35 4.52 7.29 6.74 10.82 1.09 2.04 2.25 3.61 3.47 4.69 4.36 2.04 8.92 2.79 13.68 2.25l-.61-.61c-3.11-3.14-10.72-13.98-12.67-17.78 20.38-20.54-18.16-25.02-24.5-20.63l-.2.61zm52.18 2.22l-.69 1.31-3.02 8.55-.36 1.31-2.35 6.57-.33 1.32-.69 1.31-3.37 9.52c-.67 2.41-1.46 4.37-2.36 5.9h10.13l-.66-1.96 3.37-10.19h10.11c1.93 3.75 2.82 7.48 4.73 10.84l-.67 1.31h13.84c-5.66-9.54-11.5-29.78-15.19-39.72H165.8l.33 3.94zm7.87 19.88h-7.54l3.59-12.32 3.96 12.32zm264.66-4.73l5.05 4.84c13.4 12.89-3.09 11.01-7.77 7.98v.65l.42 1.67.21 1.04.84 3.17 3.37 1.26c11.21 1.27 17.73-1.61 19.57-8.63 2.76-9.18-18.1-17.59-18.1-24.41 7.34-8.94 13.87 6.99 13.26-1.05v-4.63c-15.55-6.21-26.32 9.66-16.85 18.1zm-220.6-20.09c.63 1.76 1.22 3.9 1.71 5.72l.21 2.88-.21 1.54c-1.31 8.81-3.55 17.87-5.14 26.7l-.65 1.56-2.14 2.88h6.22l.21-1.34c.88-4.55 1.9-9.13 2.77-13.69.37-3.14 1.51-6.61 1.92-9.7 2.05 4.39 6.7 19.89 7.72 24.73 2.74 0 5.7-.23 8.57-.23.5-3.93 4.69-22.33 6.43-25.61.57 2.6.96 5.19 1.5 7.74.81 3.93 1.71 8.16 2.35 12.14l.64 3.76-1.5 1.53h11.14c-.86-1.18-1.5-2.28-1.92-3.3l-.21-1.12c-1.99-10.89-4.43-22.66-6.86-33.56l-.44-2.63h-6.63c-.86 0-.86 1.25 0 3.74 0 .43-.14 1.18-.44 2.21-1.91 7.02-3.45 14.19-5.35 21.2-.31 1.63-1.06 2.96-1.06 4.64-3.4-10.52-6.14-21.24-9.43-31.79h-9.41zm44.69.68c.55.99.96 1.91 1.24 2.77v35.3l-1.45 2.33h12.62l-.21-.42c-.82-1.13-1.37-2.27-1.65-3.4v-33.6c.41-1.27.96-2.27 1.65-2.98h-12.2zm13.56.77c.72.99 1.29 2 1.72 3v32.88c-.13 1.29-.49 2.44-1.07 3.43h8.17c-.56-1.57-.92-2.93-1.07-4.07V95.8c4.2 7.01 9.51 14.54 13.97 21.71 2.98 4.7 7.04 6.39 12.68 5.38V91.52c-.15-3.44-.01-6.25.42-8.39h-6.43c.42 1.16.71 2.09.85 2.79v26.86l-.42-.64c-5.85-7.71-15.08-20.85-19.13-29.01h-9.68v.66zm36.56-.57c1.01 1.57 1.52 3.07 1.52 4.5v33.24l-1.52 2.36 22.51.21c1.1-1.98 2.95-4.81 3.66-6.86-3.86.95-11.88 1.32-15.23.63v-14.58l12.88-.22-.65-1.49c-.99-2-1.71-3.3-2.14-3.87-2.41 0-8 .38-10.08-.21v-7.94c1.86-.44 8.22-.37 10.5 0l3.22.65-.42-1.3-3.01-5.13h-21.23zm27.72 1.6c1.51.83 2.26 2.07 2.26 3.71v32.02c-.69 1.24-1.38 2.2-2.06 2.88h13.96c-.95-1.37-1.63-2.67-2.04-3.89l.2-32.04c12.69 0 13.77 15.19 1.64 17.25l.2.84c2.46 3.36 4.54 7.32 6.78 10.87 1.1 2.05 2.26 3.63 3.49 4.72 4.38 2.05 8.97 2.81 13.75 2.26l-.61-.61c-3.13-3.16-10.78-14.06-12.73-17.87 20.48-20.64-18.26-25.15-24.63-20.74l-.2.61z"/><path class="dfil2" d="M392.08 87.1l-.7 1.33-3.07 8.69-.36 1.33-2.39 6.68-.34 1.34-.7 1.33-3.43 9.68c-.68 2.44-1.48 4.44-2.4 6h10.3l-.67-1.99 3.43-10.36h10.28c1.97 3.81 2.86 7.6 4.81 11.02l-.68 1.33h14.07c-5.75-9.7-11.69-30.28-15.45-40.38h-13.03l.34 4.01zm8.01 20.21h-7.67l3.64-12.53 4.02 12.53zm21.42-24.08c.55.98.96 1.91 1.24 2.76v35.22l-1.44 2.32h12.59l-.21-.41c-.82-1.13-1.37-2.26-1.65-3.39V86.21c.41-1.27.96-2.26 1.65-2.97h-12.17z"/><path fill="url(#did0)" d="M466.99 75.3l-260.48 2.93-2.24-.03-2.24-.04-2.26-.03-2.25-.03-2.27-.04-2.29-.03-2.29-.03-2.29-.03-2.3-.03-2.3-.03-2.32-.04-2.32-.03-2.34-.03-2.36-.04-2.33-.03-2.37-.03-2.36-.03-2.37-.04-2.4-.03-2.38-.03-2.39-.04-2.41-.03-2.41-.04-2.43-.03-2.45-.04-2.42-.03-2.46-.04-2.46-.03-2.45-.03-2.47-.04-2.49-.03-2.5-.04-2.66-.04-2.65-.04-2.68-.03-2.71-.05-2.69-.03-2.69-.04-2.75-.04-2.72-.04-2.73-.04-2.75-.04-2.78-.04-2.78-.04-2.78-.04-2.78-.04-2.82-.04-2.83-.04-2.82-.04-2.84-.04-2.86-.04-2.85-.04-2.87-.04-2.88-.04-2.91-.04-2.91-.04-2.92-.04-2.91-.05-2.95-.04-2.94-.04-2.97-.04-2.98-.04-2.99-.04-2.99-.05 242.03-3.18 3.35.05 3.31.04 3.31.05 3.29.04 3.27.05 3.26.05 3.25.05 3.26.04 3.22.04 3.22.05 3.2.05 3.2.04 3.18.05 3.17.04 3.15.05 3.15.04 3.14.05 3.1.04 3.12.05 3.1.04 3.08.04 3.06.05 3.06.04 3.05.05 3.04.04 3.03.04 3.01.04 2.99.05 2.99.04 2.99.04 2.96.05 2.96.04 2.76.04 2.74.04 2.77.04 2.73.04 2.72.04 2.73.03 2.71.04 2.69.04 2.69.04 2.7.03 2.67.05 2.67.03 2.65.04 2.65.04 2.63.03 2.63.04 2.64.04 2.61.03 2.6.04 2.59.04 2.59.03 2.56.04 2.58.03 2.55.04 2.55.03 2.53.04 2.54.04 2.52.03 2.52.04 2.5.03 2.49.04z"/><path class="dfil2" d="M22.98 140.73h2.51l-3.81 14.19h-2.51l3.81-14.19zm5.05 3.49h2.45l-.37 1.39c.43-.44.89-.81 1.38-1.14.49-.32 1.07-.48 1.76-.48.8 0 1.44.21 1.92.63.48.42.81.93 1 1.54.47-.66 1.04-1.18 1.71-1.57.67-.4 1.44-.59 2.3-.59.97 0 1.75.29 2.32.87.57.58.86 1.36.86 2.33 0 .28-.04.59-.11.92-.07.33-.15.65-.23.96l-1.56 5.84h-2.45l1.6-5.93c.04-.18.07-.36.1-.56.03-.19.04-.37.04-.51 0-.54-.15-.95-.45-1.24-.3-.29-.73-.44-1.3-.44-.68 0-1.27.25-1.77.74-.51.49-.86 1.14-1.06 1.93l-1.62 6.01H32.1l1.6-5.93c.04-.18.07-.36.1-.56.03-.19.04-.37.04-.51 0-.54-.15-.95-.45-1.24-.3-.29-.73-.44-1.3-.44-.69 0-1.28.25-1.78.74s-.86 1.14-1.07 1.93l-1.62 6.01h-2.45l2.86-10.7zm22.68 8.84c.5 0 .97-.11 1.42-.33.45-.22.84-.53 1.18-.92.34-.39.6-.85.8-1.37.2-.52.29-1.08.29-1.67 0-.82-.23-1.47-.69-1.95-.46-.47-1.07-.71-1.84-.71-.49 0-.96.11-1.43.34-.47.23-.88.54-1.24.92-.36.39-.64.83-.86 1.35-.22.51-.32 1.05-.32 1.62 0 .39.06.75.19 1.08.13.33.31.62.55.86.24.24.52.43.85.57.33.14.7.2 1.1.2zm-3.41-8.84h2.45l-.39 1.42c.49-.49 1-.88 1.55-1.19.55-.3 1.17-.46 1.88-.46.59 0 1.15.1 1.66.31s.96.51 1.33.91c.37.4.66.88.87 1.45.21.57.31 1.2.31 1.91 0 .95-.17 1.82-.5 2.62-.33.8-.77 1.5-1.33 2.08a6.15 6.15 0 01-1.91 1.37c-.72.33-1.46.5-2.23.5-.95 0-1.7-.21-2.27-.62a4.6 4.6 0 01-1.34-1.51L46 158.16h-2.45l3.73-13.95zm16.64 8.82c.51 0 .99-.12 1.44-.37a4.25 4.25 0 001.95-2.25c.19-.49.28-.97.28-1.46 0-.91-.25-1.6-.76-2.1-.51-.49-1.17-.74-1.98-.74-.53 0-1.01.12-1.46.36-.45.24-.83.56-1.17.95-.33.39-.59.83-.77 1.32-.18.49-.27.97-.27 1.44 0 .91.25 1.6.76 2.1.51.49 1.17.74 1.98.74zm-.14 2.13c-.77 0-1.46-.12-2.08-.36-.61-.24-1.14-.58-1.58-1.02-.44-.44-.78-.96-1.01-1.55-.24-.59-.36-1.24-.36-1.95 0-.81.16-1.59.49-2.35.32-.76.77-1.43 1.34-2.01a6.69 6.69 0 011.99-1.4c.76-.35 1.57-.53 2.43-.53.77 0 1.46.12 2.08.37.61.24 1.14.58 1.58 1.02.44.44.78.96 1.01 1.56.24.6.35 1.25.35 1.96 0 .81-.17 1.6-.5 2.35a6.579 6.579 0 01-3.34 3.4c-.76.34-1.56.52-2.41.52zm10.12-10.95h2.45l-.63 2.41c.59-.85 1.25-1.52 1.97-2s1.55-.69 2.51-.62l-.69 2.59h-.14c-.54 0-1.06.09-1.55.26-.49.18-.95.44-1.36.8-.41.36-.78.81-1.1 1.35a7.62 7.62 0 00-.79 1.93l-1.07 3.97h-2.45l2.86-10.7zm9.37 10.89c-.86 0-1.53-.19-1.99-.57-.46-.38-.69-.89-.69-1.54 0-.42.06-.83.18-1.24l1.44-5.43h-1.36l.57-2.11h1.36l.79-2.94h2.45l-.79 2.94h2.86l-.57 2.11h-2.86l-1.38 5.17c-.03.11-.05.22-.06.32-.01.11-.02.2-.02.28 0 .55.36.83 1.07.83.5 0 1.02-.11 1.56-.34l-.57 2.13c-.57.26-1.24.38-2.01.38zm13.36-6.32c.07-.18.1-.42.1-.73 0-.55-.17-1.03-.51-1.44-.34-.41-.88-.61-1.62-.61-.84 0-1.57.26-2.19.78-.62.52-1.07 1.19-1.34 2h5.55zm-5.82 1.68c.01.81.25 1.46.72 1.96.47.49 1.15.74 2.06.74.51 0 .98-.08 1.41-.25.43-.17.87-.43 1.33-.78l1.18 1.56c-.51.42-1.1.77-1.76 1.05-.66.28-1.46.43-2.39.43-.74 0-1.42-.11-2.02-.32-.6-.22-1.11-.53-1.53-.93-.42-.41-.74-.9-.97-1.48-.23-.58-.34-1.23-.34-1.95 0-.78.15-1.56.46-2.34.3-.78.74-1.47 1.3-2.09.56-.61 1.23-1.11 2-1.49.77-.38 1.62-.57 2.55-.57.69 0 1.3.11 1.82.32.53.22.97.51 1.34.88.36.37.64.81.83 1.32.19.51.28 1.05.28 1.63 0 .38-.04.76-.12 1.15-.08.39-.2.77-.34 1.17h-7.78zm11.9-6.24h2.45l-.63 2.41c.59-.85 1.25-1.52 1.97-2s1.55-.69 2.51-.62l-.69 2.59h-.14c-.54 0-1.06.09-1.55.26-.49.18-.95.44-1.36.8-.41.36-.78.81-1.1 1.35a7.62 7.62 0 00-.79 1.93l-1.07 3.97h-2.45l2.86-10.7zm16.62 8.84c1.05 0 2.12-.42 3.18-1.26l-2.49-3.47c-1.04.32-1.79.75-2.25 1.27-.46.52-.69 1.06-.69 1.63 0 .54.19.98.58 1.32.39.34.94.51 1.67.51zm1.76-6.81c.57-.18 1.03-.36 1.4-.55.36-.19.66-.38.87-.57.22-.19.37-.39.46-.59.09-.2.13-.42.13-.65 0-.38-.14-.71-.42-1-.28-.29-.67-.44-1.19-.44-.28 0-.54.05-.78.15-.24.1-.44.24-.62.42s-.31.37-.41.6c-.09.22-.14.46-.14.72 0 .27.05.56.15.86.1.3.28.65.54 1.04zm2.55 7.14c-.7.57-1.42 1-2.16 1.3-.74.3-1.54.45-2.42.45-.64 0-1.22-.08-1.75-.25-.53-.17-.99-.41-1.38-.73a3.49 3.49 0 01-.91-1.17c-.22-.46-.33-.99-.33-1.58 0-.95.34-1.82 1.03-2.64.69-.81 1.78-1.45 3.28-1.91-.26-.43-.46-.86-.6-1.29-.14-.43-.21-.84-.21-1.25 0-.51.1-1 .3-1.47.2-.47.49-.88.87-1.23s.83-.63 1.36-.83c.53-.2 1.11-.3 1.74-.3.55 0 1.06.08 1.52.24.46.16.85.39 1.18.68.32.29.58.64.76 1.03.18.4.27.83.27 1.31 0 .35-.06.71-.19 1.06-.13.36-.35.71-.66 1.04-.31.34-.73.66-1.25.97-.52.31-1.17.59-1.96.83l1.99 2.74c.34-.37.66-.77.97-1.21.31-.44.62-.91.93-1.41l1.56 1.05c-.77 1.2-1.54 2.23-2.31 3.08l1.52 2.11-1.84 1.18-1.32-1.82zm14.88-12.65h10.42l-.61 2.25h-7.93l-.99 3.69h7.03l-.61 2.21h-7.03l-1.01 3.79h8.05l-.61 2.25h-10.52l3.81-14.19zm13.74 8.62l-2.47-5.13h2.64l1.52 3.43 3.16-3.43h2.96l-5.19 5.37 2.53 5.33h-2.64l-1.6-3.65-3.39 3.65h-2.98l5.45-5.57zm13.42 3.71c.5 0 .97-.11 1.42-.33.45-.22.84-.53 1.18-.92.34-.39.6-.85.8-1.37.2-.52.29-1.08.29-1.67 0-.82-.23-1.47-.69-1.95-.46-.47-1.07-.71-1.84-.71-.49 0-.96.11-1.43.34-.47.23-.88.54-1.24.92-.36.39-.64.83-.86 1.35-.22.51-.32 1.05-.32 1.62 0 .39.06.75.19 1.08.13.33.31.62.55.86.24.24.52.43.85.57.33.14.7.2 1.1.2zm-3.41-8.84h2.45l-.39 1.42c.49-.49 1-.88 1.55-1.19.55-.3 1.17-.46 1.88-.46.59 0 1.15.1 1.66.31s.96.51 1.33.91c.37.4.66.88.87 1.45.21.57.31 1.2.31 1.91 0 .95-.17 1.82-.5 2.62-.33.8-.77 1.5-1.33 2.08a6.15 6.15 0 01-1.91 1.37c-.72.33-1.46.5-2.23.5-.95 0-1.7-.21-2.27-.62a4.6 4.6 0 01-1.34-1.51l-1.38 5.15h-2.45l3.73-13.95zm16.64 8.82c.51 0 .99-.12 1.44-.37a4.25 4.25 0 001.95-2.25c.19-.49.28-.97.28-1.46 0-.91-.25-1.6-.76-2.1-.51-.49-1.17-.74-1.98-.74-.53 0-1.01.12-1.46.36-.45.24-.83.56-1.17.95-.33.39-.59.83-.77 1.32-.18.49-.27.97-.27 1.44 0 .91.25 1.6.76 2.1.51.49 1.17.74 1.98.74zm-.14 2.13c-.77 0-1.46-.12-2.08-.36-.61-.24-1.14-.58-1.58-1.02-.44-.44-.78-.96-1.01-1.55-.24-.59-.36-1.24-.36-1.95 0-.81.16-1.59.49-2.35.32-.76.77-1.43 1.34-2.01a6.69 6.69 0 011.99-1.4c.76-.35 1.57-.53 2.43-.53.77 0 1.46.12 2.08.37.61.24 1.14.58 1.58 1.02.44.44.78.96 1.01 1.56.24.6.35 1.25.35 1.96 0 .81-.17 1.6-.5 2.35a6.579 6.579 0 01-3.34 3.4c-.76.34-1.56.52-2.41.52zm10.12-10.95h2.45l-.63 2.41c.59-.85 1.25-1.52 1.97-2s1.55-.69 2.51-.62l-.69 2.59h-.14c-.54 0-1.06.09-1.55.26-.49.18-.95.44-1.36.8-.41.36-.78.81-1.1 1.35a7.62 7.62 0 00-.79 1.93l-1.07 3.97h-2.45l2.86-10.7zm9.37 10.89c-.86 0-1.53-.19-1.99-.57-.46-.38-.69-.89-.69-1.54 0-.42.06-.83.18-1.24l1.44-5.43h-1.36l.57-2.11h1.36l.79-2.94h2.45l-.79 2.94h2.86l-.57 2.11h-2.86l-1.38 5.17c-.03.11-.05.22-.06.32-.01.11-.02.2-.02.28 0 .55.36.83 1.07.83.5 0 1.02-.11 1.56-.34l-.57 2.13c-.57.26-1.24.38-2.01.38zm13.36-6.32c.07-.18.1-.42.1-.73 0-.55-.17-1.03-.51-1.44-.34-.41-.88-.61-1.62-.61-.84 0-1.57.26-2.19.78-.62.52-1.07 1.19-1.34 2h5.55zm-5.82 1.68c.01.81.25 1.46.72 1.96.47.49 1.15.74 2.06.74.51 0 .98-.08 1.41-.25.43-.17.87-.43 1.33-.78l1.18 1.56c-.51.42-1.1.77-1.76 1.05-.66.28-1.46.43-2.39.43-.74 0-1.42-.11-2.02-.32-.6-.22-1.11-.53-1.53-.93-.42-.41-.74-.9-.97-1.48-.23-.58-.34-1.23-.34-1.95 0-.78.15-1.56.46-2.34.3-.78.74-1.47 1.3-2.09.56-.61 1.23-1.11 2-1.49.77-.38 1.62-.57 2.55-.57.69 0 1.3.11 1.82.32.53.22.97.51 1.34.88.36.37.64.81.83 1.32.19.51.28 1.05.28 1.63 0 .38-.04.76-.12 1.15-.08.39-.2.77-.34 1.17h-7.78zm11.9-6.24h2.45l-.63 2.41c.59-.85 1.25-1.52 1.97-2s1.55-.69 2.51-.62l-.69 2.59h-.14c-.54 0-1.06.09-1.55.26-.49.18-.95.44-1.36.8-.41.36-.78.81-1.1 1.35a7.62 7.62 0 00-.79 1.93l-1.07 3.97h-2.45l2.86-10.7zm17.56 8.82c.51 0 .99-.12 1.44-.37a4.25 4.25 0 001.95-2.25c.19-.49.28-.97.28-1.46 0-.91-.25-1.6-.76-2.1-.51-.49-1.17-.74-1.98-.74-.53 0-1.01.12-1.46.36-.45.24-.83.56-1.17.95-.33.39-.59.83-.77 1.32-.18.49-.27.97-.27 1.44 0 .91.25 1.6.76 2.1.51.49 1.17.74 1.98.74zm-.14 2.13c-.77 0-1.46-.12-2.08-.36-.61-.24-1.14-.58-1.58-1.02-.44-.44-.78-.96-1.01-1.55-.24-.59-.36-1.24-.36-1.95 0-.81.16-1.59.49-2.35.32-.76.77-1.43 1.34-2.01a6.69 6.69 0 011.99-1.4c.76-.35 1.57-.53 2.43-.53.77 0 1.46.12 2.08.37.61.24 1.14.58 1.58 1.02.44.44.78.96 1.01 1.56.24.6.35 1.25.35 1.96 0 .81-.17 1.6-.5 2.35a6.579 6.579 0 01-3.34 3.4c-.76.34-1.56.52-2.41.52zm10.14-8.84h-1.36l.57-2.11h1.36l.2-.87c.31-1.15.81-1.99 1.49-2.52.68-.53 1.54-.8 2.58-.8.43 0 .82.03 1.18.1.35.07.66.16.93.26l-.55 2.05c-.51-.22-1.01-.32-1.5-.32-.91 0-1.49.5-1.76 1.5l-.16.61h2.96l-.57 2.11h-2.92l-2.31 8.6h-2.45l2.31-8.6zm19.14 8.84c-.84 0-1.65-.13-2.42-.38a6.31 6.31 0 01-2.08-1.15 5.59 5.59 0 01-1.46-1.91c-.36-.76-.55-1.65-.55-2.67 0-1.09.22-2.16.67-3.19.45-1.03 1.06-1.95 1.84-2.75s1.71-1.44 2.79-1.92c1.07-.48 2.24-.72 3.5-.72.74 0 1.41.07 2 .2.59.14 1.11.32 1.57.56.46.24.85.51 1.19.81.33.3.62.62.86.94l-1.87 1.58c-.2-.24-.43-.48-.68-.7a3.98 3.98 0 00-.85-.58c-.32-.16-.67-.29-1.06-.39-.39-.09-.84-.14-1.34-.14-.85 0-1.65.17-2.38.52-.74.35-1.37.81-1.91 1.38-.53.57-.95 1.24-1.26 1.98-.3.75-.46 1.52-.46 2.34 0 .62.1 1.18.3 1.67.2.49.49.9.85 1.23.36.33.79.59 1.29.76.49.18 1.03.26 1.61.26.65 0 1.22-.07 1.71-.22s.92-.32 1.29-.51l.87-3.02h-3.63l.59-2.17h6.04l-1.93 6.79c-.73.43-1.5.77-2.32 1.01-.82.24-1.75.36-2.79.36zm16.89-6.39c.07-.18.1-.42.1-.73 0-.55-.17-1.03-.51-1.44-.34-.41-.88-.61-1.62-.61-.84 0-1.57.26-2.19.78-.62.52-1.07 1.19-1.34 2h5.55zm-5.82 1.68c.01.81.25 1.46.72 1.96.47.49 1.15.74 2.06.74.51 0 .98-.08 1.41-.25.43-.17.87-.43 1.33-.78l1.18 1.56c-.51.42-1.1.77-1.76 1.05-.66.28-1.46.43-2.39.43-.74 0-1.42-.11-2.02-.32-.6-.22-1.11-.53-1.53-.93-.42-.41-.74-.9-.97-1.48-.23-.58-.34-1.23-.34-1.95 0-.78.15-1.56.46-2.34.3-.78.74-1.47 1.3-2.09.56-.61 1.23-1.11 2-1.49.77-.38 1.62-.57 2.55-.57.69 0 1.3.11 1.82.32.53.22.97.51 1.34.88.36.37.64.81.83 1.32.19.51.28 1.05.28 1.63 0 .38-.04.76-.12 1.15-.08.39-.2.77-.34 1.17h-7.78zm11.9-6.24h2.45l-.37 1.39c.43-.44.89-.81 1.38-1.14.49-.32 1.07-.48 1.76-.48.8 0 1.44.21 1.92.63.48.42.81.93 1 1.54.47-.66 1.04-1.18 1.71-1.57.67-.4 1.44-.59 2.3-.59.97 0 1.75.29 2.32.87.57.58.86 1.36.86 2.33 0 .28-.04.59-.11.92-.07.33-.15.65-.23.96l-1.56 5.84h-2.45l1.6-5.93c.04-.18.07-.36.1-.56.03-.19.04-.37.04-.51 0-.54-.15-.95-.45-1.24-.3-.29-.73-.44-1.3-.44-.68 0-1.27.25-1.77.74-.51.49-.86 1.14-1.06 1.93l-1.62 6.01h-2.45l1.6-5.93c.04-.18.07-.36.1-.56.03-.19.04-.37.04-.51 0-.54-.15-.95-.45-1.24-.3-.29-.73-.44-1.3-.44-.69 0-1.28.25-1.78.74s-.86 1.14-1.07 1.93l-1.62 6.01h-2.45l2.86-10.7zm20.68 10.95c-.81 0-1.65-.16-2.5-.48-.86-.32-1.6-.8-2.22-1.45l1.46-1.5c.57.57 1.15.96 1.74 1.18.59.22 1.16.32 1.7.32.49 0 .9-.11 1.23-.34.33-.23.5-.54.5-.93 0-.27-.12-.5-.37-.7-.25-.2-.64-.41-1.18-.64-.44-.18-.85-.36-1.23-.55-.38-.19-.7-.4-.97-.64s-.48-.51-.64-.81c-.16-.3-.23-.66-.23-1.06 0-.5.1-.97.29-1.4.2-.43.48-.81.84-1.13.36-.32.8-.57 1.32-.75.51-.18 1.09-.27 1.74-.27.85 0 1.64.15 2.36.46.72.3 1.31.65 1.75 1.04l-1.36 1.58c-.98-.78-1.96-1.18-2.93-1.18-.52 0-.93.12-1.21.34-.28.23-.42.52-.42.87 0 .27.13.51.39.71.26.2.7.43 1.3.69.4.18.78.36 1.14.55.36.19.67.4.93.63.26.23.47.49.62.79.16.3.23.64.23 1.03 0 .55-.11 1.05-.33 1.5-.22.45-.52.83-.91 1.15-.39.32-.84.56-1.36.73-.52.17-1.09.25-1.7.25zm16.28-1.82c.38 0 .74-.07 1.09-.2.35-.14.67-.32.96-.56.29-.24.54-.51.75-.81.21-.3.35-.62.44-.94l.12-.47c-.34-.11-.71-.2-1.12-.28-.41-.08-.84-.12-1.32-.12-.82 0-1.47.18-1.94.54-.47.36-.7.82-.7 1.39 0 .47.15.83.46 1.08.3.25.72.37 1.25.37zm-.95 1.8c-.46 0-.89-.07-1.29-.21-.4-.14-.74-.34-1.03-.59-.29-.25-.52-.56-.69-.92-.17-.37-.25-.77-.25-1.22 0-.62.12-1.17.36-1.65s.57-.88.99-1.21c.43-.32.93-.57 1.51-.74.58-.17 1.22-.25 1.91-.25.59 0 1.16.05 1.69.14.53.09 1.04.22 1.51.38l.06-.22c.04-.16.07-.3.09-.43.02-.12.03-.26.03-.43 0-.47-.18-.85-.55-1.15-.37-.29-.96-.44-1.78-.44-.54 0-1.06.05-1.55.16s-.96.25-1.39.43l-.41-2.03c.55-.23 1.15-.41 1.78-.54.64-.13 1.32-.19 2.05-.19 1.42 0 2.49.29 3.21.87.72.58 1.09 1.4 1.09 2.45 0 .26-.02.51-.06.75-.04.24-.1.5-.16.77l-1.6 6.02h-2.41l.36-1.4c-.47.5-.99.9-1.54 1.19-.55.29-1.2.44-1.93.44zm11.25-10.93h2.45l-.37 1.39c.43-.44.91-.81 1.43-1.14.52-.32 1.12-.48 1.81-.48 1 0 1.79.29 2.38.86.59.57.88 1.36.88 2.34 0 .28-.03.59-.1.92-.07.33-.14.65-.22.96l-1.54 5.84h-2.45l1.58-5.93c.05-.18.1-.36.12-.56.03-.19.04-.37.04-.51 0-.54-.16-.95-.49-1.24-.32-.29-.78-.44-1.38-.44-.69 0-1.3.25-1.82.74-.53.49-.9 1.14-1.12 1.93l-1.62 6.01h-2.45l2.86-10.7zm15.57 8.84c.49 0 .96-.11 1.43-.34.47-.23.88-.54 1.24-.93s.64-.84.86-1.36c.22-.51.32-1.05.32-1.62 0-.39-.07-.75-.2-1.08a2.62 2.62 0 00-.56-.85 2.62 2.62 0 00-.85-.56c-.33-.14-.7-.2-1.1-.2-.5 0-.97.11-1.42.33-.45.22-.84.53-1.18.91-.34.39-.6.84-.8 1.37-.2.53-.29 1.09-.29 1.68 0 .81.23 1.46.7 1.94s1.09.72 1.86.72zm-.95 2.09c-.59 0-1.15-.1-1.65-.31-.51-.21-.95-.51-1.33-.91-.38-.4-.67-.88-.88-1.44-.21-.56-.31-1.2-.31-1.92 0-.95.17-1.82.5-2.63.33-.8.77-1.5 1.33-2.08a6.15 6.15 0 011.91-1.37c.72-.33 1.46-.5 2.23-.5.95 0 1.7.21 2.27.62a4.6 4.6 0 011.34 1.51l1.6-6h2.45l-3.95 14.8h-2.45l.39-1.42c-.49.49-1 .88-1.55 1.19-.55.3-1.17.46-1.88.46zm18.75-14.41h2.53l2.47 6.71 6.08-6.71h2.86l-3.81 14.19h-2.53l2.74-10.18-6.24 6.69h-.08l-2.62-6.65-2.72 10.14h-2.49l3.81-14.19zm16.52 3.49h2.45l-2.88 10.7h-2.45l2.88-10.7zm.97-3.97h2.66l-.65 2.33h-2.64l.63-2.33zm4.66 3.97h2.45l-.37 1.39c.43-.44.91-.81 1.43-1.14.52-.32 1.12-.48 1.81-.48 1 0 1.79.29 2.38.86.59.57.88 1.36.88 2.34 0 .28-.03.59-.1.92-.07.33-.14.65-.22.96l-1.54 5.84h-2.45l1.58-5.93c.05-.18.09-.36.12-.56.03-.19.04-.37.04-.51 0-.54-.16-.95-.49-1.24-.32-.29-.78-.44-1.38-.44-.69 0-1.3.25-1.82.74-.53.49-.9 1.14-1.12 1.93l-1.62 6.01h-2.45l2.86-10.7zm18.59 4.52c.07-.18.1-.42.1-.73 0-.55-.17-1.03-.51-1.44-.34-.41-.88-.61-1.62-.61-.84 0-1.57.26-2.19.78-.62.52-1.07 1.19-1.34 2h5.55zm-5.82 1.68c.01.81.25 1.46.72 1.96.47.49 1.15.74 2.06.74.51 0 .98-.08 1.41-.25.43-.17.87-.43 1.33-.78l1.18 1.56c-.51.42-1.1.77-1.76 1.05-.66.28-1.46.43-2.39.43-.74 0-1.42-.11-2.02-.32-.6-.22-1.11-.53-1.53-.93-.42-.41-.74-.9-.97-1.48-.23-.58-.34-1.23-.34-1.95 0-.78.15-1.56.46-2.34.3-.78.74-1.47 1.3-2.09.56-.61 1.23-1.11 2-1.49.77-.38 1.62-.57 2.55-.57.69 0 1.3.11 1.82.32.53.22.97.51 1.34.88.36.37.64.81.83 1.32.19.51.28 1.05.28 1.63 0 .38-.04.76-.12 1.15-.08.39-.2.77-.34 1.17h-7.78zm11.9-6.24h2.45l-.63 2.41c.59-.85 1.25-1.52 1.97-2s1.55-.69 2.51-.62l-.69 2.59h-.14c-.54 0-1.06.09-1.55.26-.49.18-.95.44-1.36.8-.41.36-.78.81-1.1 1.35a7.62 7.62 0 00-.79 1.93l-1.07 3.97h-2.45l2.86-10.7zm9.87 9.12c.38 0 .74-.07 1.09-.2.35-.14.67-.32.96-.56.29-.24.54-.51.75-.81.21-.3.35-.62.44-.94l.12-.47c-.34-.11-.71-.2-1.12-.28-.41-.08-.84-.12-1.32-.12-.82 0-1.47.18-1.94.54-.47.36-.7.82-.7 1.39 0 .47.15.83.46 1.08.3.25.72.37 1.25.37zm-.95 1.8c-.46 0-.89-.07-1.29-.21-.4-.14-.74-.34-1.03-.59-.29-.25-.52-.56-.69-.92-.17-.37-.25-.77-.25-1.22 0-.62.12-1.17.36-1.65s.57-.88.99-1.21c.43-.32.93-.57 1.51-.74.58-.17 1.22-.25 1.91-.25.59 0 1.16.05 1.69.14.53.09 1.04.22 1.51.38l.06-.22c.04-.16.07-.3.09-.43.02-.12.03-.26.03-.43 0-.47-.18-.85-.55-1.15-.37-.29-.96-.44-1.78-.44-.54 0-1.06.05-1.55.16s-.96.25-1.39.43l-.41-2.03c.55-.23 1.15-.41 1.78-.54.64-.13 1.32-.19 2.05-.19 1.42 0 2.49.29 3.21.87.72.58 1.08 1.4 1.08 2.45 0 .26-.02.51-.06.75-.04.24-.09.5-.16.77l-1.6 6.02h-2.41l.36-1.4c-.47.5-.99.9-1.54 1.19-.55.29-1.2.44-1.93.44zm12.51-15.02h2.45l-3.97 14.8h-2.45l3.97-14.8zm5.96 15.04c-.81 0-1.65-.16-2.5-.48-.86-.32-1.6-.8-2.22-1.45l1.46-1.5c.57.57 1.15.96 1.74 1.18.59.22 1.16.32 1.7.32.49 0 .9-.11 1.23-.34.33-.23.5-.54.5-.93 0-.27-.12-.5-.37-.7-.25-.2-.64-.41-1.18-.64-.44-.18-.85-.36-1.23-.55-.38-.19-.7-.4-.97-.64s-.48-.51-.64-.81c-.16-.3-.23-.66-.23-1.06 0-.5.1-.97.29-1.4.2-.43.48-.81.84-1.13.36-.32.8-.57 1.32-.75.51-.18 1.09-.27 1.74-.27.85 0 1.64.15 2.36.46.72.3 1.31.65 1.75 1.04l-1.36 1.58c-.98-.78-1.96-1.18-2.93-1.18-.52 0-.93.12-1.21.34-.28.23-.42.52-.42.87 0 .27.13.51.39.71.26.2.7.43 1.3.69.4.18.78.36 1.14.55.36.19.67.4.93.63.26.23.47.49.62.79.16.3.23.64.23 1.03 0 .55-.11 1.05-.33 1.5-.22.45-.52.83-.91 1.15-.39.32-.84.56-1.36.73-.52.17-1.09.25-1.7.25z"/></g></g></symbol><symbol viewBox="0 0 512 512" id="mail" xmlns="http://www.w3.org/2000/svg"><path d="M507.49 101.721L352.211 256 507.49 410.279c2.807-5.867 4.51-12.353 4.51-19.279V121c0-6.927-1.703-13.412-4.51-19.279zM467 76H45c-6.927 0-13.412 1.703-19.279 4.51l198.463 197.463c17.548 17.548 46.084 17.548 63.632 0L486.279 80.51C480.412 77.703 473.927 76 467 76zM4.51 101.721C1.703 107.588 0 114.073 0 121v270c0 6.927 1.703 13.413 4.51 19.279L159.789 256 4.51 101.721z"/><path d="M331 277.211l-21.973 21.973c-29.239 29.239-76.816 29.239-106.055 0L181 277.211 25.721 431.49C31.588 434.297 38.073 436 45 436h422c6.927 0 13.412-1.703 19.279-4.51L331 277.211z"/></symbol><symbol viewBox="-23 -21 682 682.667" id="whatsapp" xmlns="http://www.w3.org/2000/svg"><path d="M544.387 93.008C484.512 33.063 404.883.035 320.05 0 145.246 0 2.98 142.262 2.91 317.113c-.024 55.895 14.577 110.457 42.331 158.551L.25 640l168.121-44.102c46.324 25.27 98.477 38.586 151.55 38.602h.134c174.785 0 317.066-142.273 317.132-317.133.036-84.742-32.921-164.418-92.8-224.36zM320.05 580.94h-.11c-47.296-.02-93.683-12.73-134.16-36.742l-9.62-5.715-99.766 26.172 26.628-97.27-6.27-9.972c-26.386-41.969-40.32-90.476-40.296-140.281.055-145.332 118.305-263.57 263.7-263.57 70.406.023 136.59 27.476 186.355 77.3s77.156 116.051 77.133 186.485C583.582 462.69 465.34 580.94 320.05 580.94zm144.586-197.418c-7.922-3.968-46.883-23.132-54.149-25.78-7.258-2.645-12.547-3.962-17.824 3.968-5.285 7.93-20.469 25.781-25.094 31.066-4.625 5.29-9.242 5.953-17.168 1.985-7.925-3.965-33.457-12.336-63.726-39.332-23.555-21.012-39.457-46.961-44.082-54.89-4.617-7.938-.04-11.813 3.476-16.173 8.578-10.652 17.168-21.82 19.809-27.105 2.644-5.29 1.32-9.918-.664-13.883-1.977-3.965-17.824-42.969-24.426-58.84-6.437-15.445-12.965-13.36-17.832-13.601-4.617-.231-9.902-.278-15.187-.278-5.282 0-13.868 1.98-21.133 9.918-7.262 7.934-27.73 27.102-27.73 66.106s28.394 76.683 32.355 81.972c3.96 5.29 55.879 85.328 135.367 119.649 18.906 8.172 33.664 13.043 45.176 16.695 18.984 6.031 36.254 5.18 49.91 3.14 15.226-2.277 46.879-19.171 53.488-37.68 6.602-18.51 6.602-34.374 4.617-37.683-1.976-3.304-7.261-5.285-15.183-9.254zm0 0" fill-rule="evenodd"/></symbol><symbol viewBox="0 0 24 24" id="whatsapp-fixed" xmlns="http://www.w3.org/2000/svg"><path d="M20.52 3.449C18.24 1.245 15.24 0 12.045 0 2.875 0-2.883 9.935 1.696 17.838L0 24l6.335-1.652c2.76 1.491 5.021 1.359 5.716 1.447 10.633 0 15.926-12.864 8.454-20.307z" fill="#eceff1"/><path d="M12.067 21.751l-.006-.001h-.016c-3.182 0-5.215-1.507-5.415-1.594l-3.75.975 1.005-3.645-.239-.375a9.869 9.869 0 01-1.516-5.26c0-8.793 10.745-13.19 16.963-6.975 6.203 6.15 1.848 16.875-7.026 16.875z" fill="#4caf50"/><path d="M17.507 14.307l-.009.075c-.301-.15-1.767-.867-2.04-.966-.613-.227-.44-.036-1.617 1.312-.175.195-.349.21-.646.075-.3-.15-1.263-.465-2.403-1.485-.888-.795-1.484-1.77-1.66-2.07-.293-.506.32-.578.878-1.634.1-.21.049-.375-.025-.524-.075-.15-.672-1.62-.922-2.206-.24-.584-.487-.51-.672-.51-.576-.05-.997-.042-1.368.344-1.614 1.774-1.207 3.604.174 5.55 2.714 3.552 4.16 4.206 6.804 5.114.714.227 1.365.195 1.88.121.574-.091 1.767-.721 2.016-1.426.255-.705.255-1.29.18-1.425-.074-.135-.27-.21-.57-.345z" fill="#fafafa"/></symbol></svg>