<svg xmlns="http://www.w3.org/2000/svg" viewBox="0 0 466.99 158.16" shape-rendering="geometricPrecision" text-rendering="geometricPrecision" image-rendering="optimizeQuality" fill-rule="evenodd" clip-rule="evenodd"><path d="M49.72 56.4c-6.1 2.96-29.27 1.5-37.26 1.55-2.78-.22-5.2-.1-7.27.35C1.54 61.27.01 63.44.01 68l2.43-.71 14.15.35v50.47c-.45 2.07-1.25 3.92-2.4 5.54l2.4-.35 18.67.35c-1.39-1.86-2.42-4.28-3.11-7.26V67.65l1.03-.35h10.37c3.59-2.72 5.64-6 6.56-9.67l-.39-1.22zm71.51 17.38c-.78-9.12 5.28-15.88 11.83-22.34 4.02.43 7.57.8 11.6 1.23 1.88-3.71 3.76-7.41 5.64-11.11 1.83-.98 3.65-1.96 5.48-2.94 2.12.93 4.23 1.85 6.35 2.78l8.66-10.16c4.95 1.17 9.9 2.33 14.85 3.5 1.97-5.44 3.95-10.88 5.92-16.32C202.08 8.71 202.25-.17 207.77 0h6.19l32.15 28.04c4.22-4.06 8.45-8.12 12.67-12.18 17.23 9.08 26.28 12.65 41.68 19.63 5.05 3.5 10.11 6.99 15.16 10.49 6.27 8.39 12.54 16.79 18.81 25.18l.37 2.27 2.66.04 3.1.05 3.12.04 3.1.05 3.08.04 3.06.05 3.06.04 3.04.04 3.05.04 3.02.05 3.01.04 2.99.05 3 .04 2.99.04 2.95.04 2.96.04 2.76.04 2.75.04 2.76.04 2.73.04 2.73.04 2.73.04 2.71.04 2.69.04 2.69.04 2.7.03 2.67.04 2.66.03 2.65.04 2.65.04 2.64.04 2.62.04 2.64.04 2.61.04 2.61.04 2.58.04 2.59.04 2.57.04 2.57.03 2.55.04 2.55.03 2.53.04 2.53.04 2.52.04 2.52.03 2.5.03 2.5.04 2.48.03-260.48 2.92-2.24-.03-2.25-.04-2.26-.03-2.25-.03-2.27-.04-2.29-.03-2.28-.03-2.29-.03-2.3-.03-2.29-.03-2.32-.03-2.32-.03-2.34-.03-2.36-.04-2.33-.03-2.37-.04-2.36-.03-2.37-.04-2.4-.03-2.38-.03-2.39-.04-2.42-.03-2.41-.04-2.43-.03-2.45-.04-2.42-.04-2.45-.03-2.46-.04-2.45-.03-2.48-.04-2.49-.03-2.49-.04-2.66-.03-2.65-.04-2.67-.04-2.71-.04-2.69-.04-2.69-.04-2.75-.04-2.72-.04-2.73-.04-2.75-.04-2.78-.04-2.78-.04-2.79-.04-2.78-.04-2.82-.04-2.83-.04-2.82-.04-2.85-.04-2.86-.04-2.85-.04-2.87-.04-2.89-.04-2.91-.04-2.9-.04-2.92-.04-2.92-.04-2.95-.04-2.94-.04-2.98-.04-2.97-.04-3-.04-2.99-.04 80.83-1.06v-.02c.04-.18.05-.44-.1-1.01zm67.95-.49c-.33-4.54 1.64-10.53 4.17-13.48 3.19-3.72 7.3-4.79 12.99-6.52-9.49-1.92-10.62-6.29-3.17-13.18-1.22-2.33-2.43-4.66-3.65-6.99 3.13-.4 4.67-3.24 3.68-9.72-.21-1.36-.19-1.06.44-2.31 1.33-2.66 2.66-5.31 3.99-7.97-1.06-3.6-1.52-7.21-2.58-10.81l4.23-.06c1.47-.02 2.92.07 4.18-.08 10.37 9.21 19.69 18.15 30.06 27.36l-2.07 7.1c-3.55 3.6-7.1 7.2-10.64 10.8 6.25 3.44 10.54 16.69 15.76 19.46 4.63 1.15 10.46-3.41 11.4-2.93 1.48.74 2.96 1.48 4.45 2.22-1.96-4.24-3.91-8.47-5.87-12.71 2.01-4.5 5.38-8.84 7.39-13.34l-2.62-7.94c.9-1.27 2.02-3.2 2.92-4.47-2.75.06-4.67-1.29-4.37-3.49.14-1.04.36-1.48 1.11-2.08 1.23-.97 1.94-1.83 3.36-2.83 9.69 5.93 19.09 12.18 28.78 18.11.64-.69 1.55-1.69 2.18-2.38 5.35 3.39 10.69 6.78 16.04 10.17 7.3 8.58 14.6 17.16 21.91 25.74 1.08 1.43 1.3 2.17-1.11 2.22l-15.4-.01-1.44-.02-3.22-.05-3.22-.04-3.26-.04-3.25-.05-3.26-.04-.42-.01c-2.22-1.9-5.26-2.67-8.45-3.25 1.69-.63 3.39-1.27 5.08-1.9-1.96-1.91-3.78-3.53-6.19-5.22-3.27-.85-5.93-1.05-8.89-1.61-.53 1.59-1.28 3.63-1.81 5.22-3.86.85-7.51 1.23-11.38 2.08l8.47 4.55-36.78.48c-2.92-2.45-7.17-2.29-10.75-4.57-1.69 1.38-2.76 2.8-3.18 4.29-11.86.1-23.72.2-35.57.31zm-61.61.12c2.06-2.52 3.57-5.67 4.79-9.15v-9.99c5.07 1.93 10.13 3.85 15.2 5.78 2.05-.53 3.72-1.48 4.93-2.95-.09-3-.19-6.01-.28-9.01 1.13-2.2 1.92-4.41 3.04-6.62 2.3.61 4.94 1.22 7.23 1.83.58 15.74 3.88 22.12 7.45 26.48.99-6.43 1.98-13.85 2.96-20.28l-1.69-2.53c-.67-1.01-.7-.72.21-1.54 1.2-1.08 2.4-2.16 3.6-3.25-2.87-2.12-3.57-5.09-2.95-8.59 4.74 1.36 9.48 2.72 14.22 4.09 2.34 4.36 4.69 8.73 7.03 13.09-.09 1.03-.19 2.06-.28 3.1-2.35 2.67-4.69 5.35-7.04 8.02.98 1.64 1.97 3.29 2.95 4.93l-9.43 6.61c-8.92.09-17.47.18-26.39.27-1.06-2.95-3.7-4.62-9.97-.14-5.3-.05-10.29-.09-15.59-.14zm93.56-28.29c1.15 2.34 2.3 4.69 3.45 7.03l6.36-9.33c-2.92-7.04-5.84-14.08-8.77-21.13.09 5.4 2.2 11.08 4.52 16.8-1.85 2.21-3.71 4.42-5.56 6.63zm187.63 103.67c.07-.18.1-.42.1-.73 0-.55-.17-1.03-.51-1.44-.34-.41-.88-.61-1.62-.61-.84 0-1.57.26-2.19.78-.62.52-1.07 1.19-1.34 2h5.55zm-5.82 1.68c.01.81.25 1.46.72 1.96.47.49 1.15.74 2.06.74.51 0 .98-.08 1.41-.25.43-.17.87-.43 1.33-.78l1.18 1.56c-.51.42-1.1.77-1.76 1.05-.66.28-1.46.43-2.39.43-.74 0-1.42-.11-2.02-.32-.6-.22-1.11-.53-1.53-.93-.42-.41-.74-.9-.97-1.48-.23-.58-.34-1.23-.34-1.95 0-.78.15-1.56.46-2.34.3-.78.74-1.47 1.3-2.09.56-.61 1.23-1.11 2-1.49.77-.38 1.62-.57 2.55-.57.69 0 1.3.11 1.82.32.53.22.97.51 1.34.88.36.37.64.81.83 1.32.19.51.28 1.05.28 1.63 0 .38-.04.76-.12 1.15-.08.39-.2.77-.34 1.17h-7.78zm11.9-6.24h2.45l-.63 2.41c.59-.85 1.25-1.52 1.97-2s1.55-.69 2.51-.62l-.69 2.59h-.14c-.54 0-1.06.09-1.55.26-.49.18-.95.44-1.36.8-.41.36-.78.81-1.1 1.35a7.62 7.62 0 00-.79 1.93l-1.07 3.97h-2.45l2.86-10.7zm9.87 9.12c.38 0 .74-.07 1.09-.2.35-.14.67-.32.96-.56.29-.24.54-.51.75-.81.21-.3.35-.62.44-.94l.12-.47c-.34-.11-.71-.2-1.12-.28-.41-.08-.84-.12-1.32-.12-.82 0-1.47.18-1.94.54-.47.36-.7.82-.7 1.39 0 .47.15.83.46 1.08.3.25.72.37 1.25.37zm-.95 1.8c-.46 0-.89-.07-1.29-.21-.4-.14-.74-.34-1.03-.59-.29-.25-.52-.56-.69-.92-.17-.37-.25-.77-.25-1.22 0-.62.12-1.17.36-1.65s.57-.88.99-1.21c.43-.32.93-.57 1.51-.74.58-.17 1.22-.25 1.91-.25.59 0 1.16.05 1.69.14.53.09 1.04.22 1.51.38l.06-.22c.04-.16.07-.3.09-.43.02-.12.03-.26.03-.43 0-.47-.18-.85-.55-1.15-.37-.29-.96-.44-1.78-.44-.54 0-1.06.05-1.55.16s-.96.25-1.39.43l-.41-2.03c.55-.23 1.15-.41 1.78-.54.64-.13 1.32-.19 2.05-.19 1.42 0 2.49.29 3.21.87.72.58 1.08 1.4 1.08 2.45 0 .26-.02.51-.06.75-.04.24-.09.5-.16.77l-1.6 6.02h-2.41l.36-1.4c-.47.5-.99.9-1.54 1.19-.55.29-1.2.44-1.93.44zm12.51-15.02h2.45l-3.97 14.8h-2.45l3.97-14.8zm5.96 15.04c-.81 0-1.65-.16-2.5-.48-.86-.32-1.6-.8-2.22-1.45l1.46-1.5c.57.57 1.15.96 1.74 1.18.59.22 1.16.32 1.7.32.49 0 .9-.11 1.23-.34.33-.23.5-.54.5-.93 0-.27-.12-.5-.37-.7-.25-.2-.64-.41-1.18-.64-.44-.18-.85-.36-1.23-.55-.38-.19-.7-.4-.97-.64s-.48-.51-.64-.81c-.16-.3-.23-.66-.23-1.06 0-.5.1-.97.29-1.4.2-.43.48-.81.84-1.13.36-.32.8-.57 1.32-.75.51-.18 1.09-.27 1.74-.27.85 0 1.64.15 2.36.46.72.3 1.31.65 1.75 1.04l-1.36 1.58c-.98-.78-1.96-1.18-2.93-1.18-.52 0-.93.12-1.21.34-.28.23-.42.52-.42.87 0 .27.13.51.39.71.26.2.7.43 1.3.69.4.18.78.36 1.14.55.36.19.67.4.93.63.26.23.47.49.62.79.16.3.23.64.23 1.03 0 .55-.11 1.05-.33 1.5-.22.45-.52.83-.91 1.15-.39.32-.84.56-1.36.73-.52.17-1.09.25-1.7.25zM22.97 140.74h2.51l-3.81 14.19h-2.51l3.81-14.19zm5.05 3.49h2.45l-.37 1.39c.43-.44.89-.81 1.38-1.14.49-.32 1.07-.48 1.76-.48.8 0 1.44.21 1.92.63.48.42.81.93 1 1.54.47-.66 1.04-1.18 1.71-1.57.67-.4 1.44-.59 2.3-.59.97 0 1.75.29 2.32.87.57.58.86 1.36.86 2.33 0 .28-.04.59-.11.92-.07.33-.15.65-.23.96l-1.56 5.84H39l1.6-5.93c.04-.18.07-.36.1-.56.03-.19.04-.37.04-.51 0-.54-.15-.95-.45-1.24-.3-.29-.73-.44-1.3-.44-.68 0-1.27.25-1.77.74-.51.49-.86 1.14-1.06 1.93l-1.62 6.01h-2.45l1.6-5.93c.04-.18.07-.36.1-.56.03-.19.04-.37.04-.51 0-.54-.15-.95-.45-1.24-.3-.29-.73-.44-1.3-.44-.69 0-1.28.25-1.78.74s-.86 1.14-1.07 1.93l-1.62 6.01h-2.45l2.86-10.7zm22.68 8.84c.5 0 .97-.11 1.42-.33.45-.22.84-.53 1.18-.92.34-.39.6-.85.8-1.37.2-.52.29-1.08.29-1.67 0-.82-.23-1.47-.69-1.95-.46-.47-1.07-.71-1.84-.71-.49 0-.96.11-1.43.34-.47.23-.88.54-1.24.92-.36.39-.64.83-.86 1.35-.22.51-.32 1.05-.32 1.62 0 .39.06.75.19 1.08.13.33.31.62.55.86.24.24.52.43.85.57.33.14.7.2 1.1.2zm-3.41-8.84h2.45l-.39 1.42c.49-.49 1-.88 1.55-1.19.55-.3 1.17-.46 1.88-.46.59 0 1.15.1 1.66.31s.96.51 1.33.91c.37.4.66.88.87 1.45.21.57.31 1.2.31 1.91 0 .95-.17 1.82-.5 2.62-.33.8-.77 1.5-1.33 2.08a6.15 6.15 0 01-1.91 1.37c-.72.33-1.46.5-2.23.5-.95 0-1.7-.21-2.27-.62a4.6 4.6 0 01-1.34-1.51l-1.38 5.15h-2.45l3.73-13.95zm16.64 8.82c.51 0 .99-.12 1.44-.37a4.25 4.25 0 001.95-2.25c.19-.49.28-.97.28-1.46 0-.91-.25-1.6-.76-2.1-.51-.49-1.17-.74-1.98-.74-.53 0-1.01.12-1.46.36-.45.24-.83.56-1.17.95-.33.39-.59.83-.77 1.32-.18.49-.27.97-.27 1.44 0 .91.25 1.6.76 2.1.51.49 1.17.74 1.98.74zm-.14 2.13c-.77 0-1.46-.12-2.08-.36-.61-.24-1.14-.58-1.58-1.02-.44-.44-.78-.96-1.01-1.55-.24-.59-.36-1.24-.36-1.95 0-.81.16-1.59.49-2.35.32-.76.77-1.43 1.34-2.01a6.69 6.69 0 011.99-1.4c.76-.35 1.57-.53 2.43-.53.77 0 1.46.12 2.08.37.61.24 1.14.58 1.58 1.02.44.44.78.96 1.01 1.56.24.6.35 1.25.35 1.96 0 .81-.17 1.6-.5 2.35a6.579 6.579 0 01-3.34 3.4c-.76.34-1.56.52-2.41.52zm10.12-10.95h2.45l-.63 2.41c.59-.85 1.25-1.52 1.97-2s1.55-.69 2.51-.62l-.69 2.59h-.14c-.54 0-1.06.09-1.55.26-.49.18-.95.44-1.36.8-.41.36-.78.81-1.1 1.35a7.62 7.62 0 00-.79 1.93l-1.07 3.97h-2.45l2.86-10.7zm9.37 10.89c-.86 0-1.53-.19-1.99-.57-.46-.38-.69-.89-.69-1.54 0-.42.06-.83.18-1.24l1.44-5.43h-1.36l.57-2.11h1.36l.79-2.94h2.45l-.79 2.94h2.86l-.57 2.11h-2.86l-1.38 5.17c-.03.11-.05.22-.06.32-.01.11-.02.2-.02.28 0 .55.36.83 1.07.83.5 0 1.02-.11 1.56-.34l-.57 2.13c-.57.26-1.24.38-2.01.38zm13.36-6.32c.07-.18.1-.42.1-.73 0-.55-.17-1.03-.51-1.44-.34-.41-.88-.61-1.62-.61-.84 0-1.57.26-2.19.78-.62.52-1.07 1.19-1.34 2h5.55zm-5.82 1.68c.01.81.25 1.46.72 1.96.47.49 1.15.74 2.06.74.51 0 .98-.08 1.41-.25.43-.17.87-.43 1.33-.78l1.18 1.56c-.51.42-1.1.77-1.76 1.05-.66.28-1.46.43-2.39.43-.74 0-1.42-.11-2.02-.32-.6-.22-1.11-.53-1.53-.93-.42-.41-.74-.9-.97-1.48-.23-.58-.34-1.23-.34-1.95 0-.78.15-1.56.46-2.34.3-.78.74-1.47 1.3-2.09.56-.61 1.23-1.11 2-1.49.77-.38 1.62-.57 2.55-.57.69 0 1.3.11 1.82.32.53.22.97.51 1.34.88.36.37.64.81.83 1.32.19.51.28 1.05.28 1.63 0 .38-.04.76-.12 1.15-.08.39-.2.77-.34 1.17h-7.78zm11.9-6.24h2.45l-.63 2.41c.59-.85 1.25-1.52 1.97-2s1.55-.69 2.51-.62l-.69 2.59h-.14c-.54 0-1.06.09-1.55.26-.49.18-.95.44-1.36.8-.41.36-.78.81-1.1 1.35a7.62 7.62 0 00-.79 1.93l-1.07 3.97h-2.45l2.86-10.7zm16.62 8.84c1.05 0 2.12-.42 3.18-1.26l-2.49-3.47c-1.04.32-1.79.75-2.25 1.27-.46.52-.69 1.06-.69 1.63 0 .54.19.98.58 1.32.39.34.94.51 1.67.51zm1.76-6.81c.57-.18 1.03-.36 1.4-.55.36-.19.66-.38.87-.57.22-.19.37-.39.46-.59.09-.2.13-.42.13-.65 0-.38-.14-.71-.42-1-.28-.29-.67-.44-1.19-.44-.28 0-.54.05-.78.15-.24.1-.44.24-.62.42s-.31.37-.41.6c-.09.22-.14.46-.14.72 0 .27.05.56.15.86.1.3.28.65.54 1.04zm2.55 7.14c-.7.57-1.42 1-2.16 1.3-.74.3-1.54.45-2.42.45-.64 0-1.22-.08-1.75-.25-.53-.17-.99-.41-1.38-.73a3.49 3.49 0 01-.91-1.17c-.22-.46-.33-.99-.33-1.58 0-.95.34-1.82 1.03-2.64.69-.81 1.78-1.45 3.28-1.91-.26-.43-.46-.86-.6-1.29-.14-.43-.21-.84-.21-1.25 0-.51.1-1 .3-1.47.2-.47.49-.88.87-1.23s.83-.63 1.36-.83c.53-.2 1.11-.3 1.74-.3.55 0 1.06.08 1.52.24.46.16.85.39 1.18.68.32.29.58.64.76 1.03.18.4.27.83.27 1.31 0 .35-.06.71-.19 1.06-.13.36-.35.71-.66 1.04-.31.34-.73.66-1.25.97-.52.31-1.17.59-1.96.83l1.99 2.74c.34-.37.66-.77.97-1.21.31-.44.62-.91.93-1.41l1.56 1.05c-.77 1.2-1.54 2.23-2.31 3.08l1.52 2.11-1.84 1.18-1.32-1.82zm14.88-12.65h10.42l-.61 2.25h-7.93l-.99 3.69h7.03l-.61 2.21h-7.03l-1.01 3.79h8.05l-.61 2.25h-10.52l3.81-14.19zm13.74 8.62l-2.47-5.13h2.64l1.52 3.43 3.16-3.43h2.96l-5.19 5.37 2.53 5.33h-2.64l-1.6-3.65-3.39 3.65h-2.98l5.45-5.57zm13.42 3.71c.5 0 .97-.11 1.42-.33.45-.22.84-.53 1.18-.92.34-.39.6-.85.8-1.37.2-.52.29-1.08.29-1.67 0-.82-.23-1.47-.69-1.95-.46-.47-1.07-.71-1.84-.71-.49 0-.96.11-1.43.34-.47.23-.88.54-1.24.92-.36.39-.64.83-.86 1.35-.22.51-.32 1.05-.32 1.62 0 .39.06.75.19 1.08.13.33.31.62.55.86.24.24.52.43.85.57.33.14.7.2 1.1.2zm-3.41-8.84h2.45l-.39 1.42c.49-.49 1-.88 1.55-1.19.55-.3 1.17-.46 1.88-.46.59 0 1.15.1 1.66.31s.96.51 1.33.91c.37.4.66.88.87 1.45.21.57.31 1.2.31 1.91 0 .95-.17 1.82-.5 2.62-.33.8-.77 1.5-1.33 2.08a6.15 6.15 0 01-1.91 1.37c-.72.33-1.46.5-2.23.5-.95 0-1.7-.21-2.27-.62a4.6 4.6 0 01-1.34-1.51l-1.38 5.15h-2.45l3.73-13.95zm16.64 8.82c.51 0 .99-.12 1.44-.37a4.25 4.25 0 001.95-2.25c.19-.49.28-.97.28-1.46 0-.91-.25-1.6-.76-2.1-.51-.49-1.17-.74-1.98-.74-.53 0-1.01.12-1.46.36-.45.24-.83.56-1.17.95-.33.39-.59.83-.77 1.32-.18.49-.27.97-.27 1.44 0 .91.25 1.6.76 2.1.51.49 1.17.74 1.98.74zm-.14 2.13c-.77 0-1.46-.12-2.08-.36-.61-.24-1.14-.58-1.58-1.02-.44-.44-.78-.96-1.01-1.55-.24-.59-.36-1.24-.36-1.95 0-.81.16-1.59.49-2.35.32-.76.77-1.43 1.34-2.01a6.69 6.69 0 011.99-1.4c.76-.35 1.57-.53 2.43-.53.77 0 1.46.12 2.08.37.61.24 1.14.58 1.58 1.02.44.44.78.96 1.01 1.56.24.6.35 1.25.35 1.96 0 .81-.17 1.6-.5 2.35a6.579 6.579 0 01-3.34 3.4c-.76.34-1.56.52-2.41.52zm10.12-10.95h2.45l-.63 2.41c.59-.85 1.25-1.52 1.97-2s1.55-.69 2.51-.62l-.69 2.59h-.14c-.54 0-1.06.09-1.55.26-.49.18-.95.44-1.36.8-.41.36-.78.81-1.1 1.35a7.62 7.62 0 00-.79 1.93l-1.07 3.97h-2.45l2.86-10.7zm9.37 10.89c-.86 0-1.53-.19-1.99-.57-.46-.38-.69-.89-.69-1.54 0-.42.06-.83.18-1.24l1.44-5.43h-1.36l.57-2.11h1.36l.79-2.94h2.45l-.79 2.94h2.86l-.57 2.11h-2.86l-1.38 5.17c-.03.11-.05.22-.06.32-.01.11-.02.2-.02.28 0 .55.36.83 1.07.83.5 0 1.02-.11 1.56-.34l-.57 2.13c-.57.26-1.24.38-2.01.38zm13.36-6.32c.07-.18.1-.42.1-.73 0-.55-.17-1.03-.51-1.44-.34-.41-.88-.61-1.62-.61-.84 0-1.57.26-2.19.78-.62.52-1.07 1.19-1.34 2h5.55zm-5.82 1.68c.01.81.25 1.46.72 1.96.47.49 1.15.74 2.06.74.51 0 .98-.08 1.41-.25.43-.17.87-.43 1.33-.78l1.18 1.56c-.51.42-1.1.77-1.76 1.05-.66.28-1.46.43-2.39.43-.74 0-1.42-.11-2.02-.32-.6-.22-1.11-.53-1.53-.93-.42-.41-.74-.9-.97-1.48-.23-.58-.34-1.23-.34-1.95 0-.78.15-1.56.46-2.34.3-.78.74-1.47 1.3-2.09.56-.61 1.23-1.11 2-1.49.77-.38 1.62-.57 2.55-.57.69 0 1.3.11 1.82.32.53.22.97.51 1.34.88.36.37.64.81.83 1.32.19.51.28 1.05.28 1.63 0 .38-.04.76-.12 1.15-.08.39-.2.77-.34 1.17h-7.78zm11.9-6.24h2.45l-.63 2.41c.59-.85 1.25-1.52 1.97-2s1.55-.69 2.51-.62l-.69 2.59h-.14c-.54 0-1.06.09-1.55.26-.49.18-.95.44-1.36.8-.41.36-.78.81-1.1 1.35a7.62 7.62 0 00-.79 1.93l-1.07 3.97h-2.45l2.86-10.7zm17.56 8.82c.51 0 .99-.12 1.44-.37a4.25 4.25 0 001.95-2.25c.19-.49.28-.97.28-1.46 0-.91-.25-1.6-.76-2.1-.51-.49-1.17-.74-1.98-.74-.53 0-1.01.12-1.46.36-.45.24-.83.56-1.17.95-.33.39-.59.83-.77 1.32-.18.49-.27.97-.27 1.44 0 .91.25 1.6.76 2.1.51.49 1.17.74 1.98.74zm-.14 2.13c-.77 0-1.46-.12-2.08-.36-.61-.24-1.14-.58-1.58-1.02-.44-.44-.78-.96-1.01-1.55-.24-.59-.36-1.24-.36-1.95 0-.81.16-1.59.49-2.35.32-.76.77-1.43 1.34-2.01a6.69 6.69 0 011.99-1.4c.76-.35 1.57-.53 2.43-.53.77 0 1.46.12 2.08.37.61.24 1.14.58 1.58 1.02.44.44.78.96 1.01 1.56.24.6.35 1.25.35 1.96 0 .81-.17 1.6-.5 2.35a6.579 6.579 0 01-3.34 3.4c-.76.34-1.56.52-2.41.52zm10.14-8.84h-1.36l.57-2.11h1.36l.2-.87c.31-1.15.81-1.99 1.49-2.52.68-.53 1.54-.8 2.58-.8.43 0 .82.03 1.18.1.35.07.66.16.93.26l-.55 2.05c-.51-.22-1.01-.32-1.5-.32-.91 0-1.49.5-1.76 1.5l-.16.61h2.96l-.57 2.11h-2.92l-2.31 8.6h-2.45l2.31-8.6zm19.14 8.84c-.84 0-1.65-.13-2.42-.38a6.31 6.31 0 01-2.08-1.15 5.59 5.59 0 01-1.46-1.91c-.36-.76-.55-1.65-.55-2.67 0-1.09.22-2.16.67-3.19.45-1.03 1.06-1.95 1.84-2.75s1.71-1.44 2.79-1.92c1.07-.48 2.24-.72 3.5-.72.74 0 1.41.07 2 .2.59.14 1.11.32 1.57.56.46.24.85.51 1.19.81.33.3.62.62.86.94l-1.87 1.58c-.2-.24-.43-.48-.68-.7a3.98 3.98 0 00-.85-.58c-.32-.16-.67-.29-1.06-.39-.39-.09-.84-.14-1.34-.14-.85 0-1.65.17-2.38.52-.74.35-1.37.81-1.91 1.38-.53.57-.95 1.24-1.26 1.98-.3.75-.46 1.52-.46 2.34 0 .62.1 1.18.3 1.67.2.49.49.9.85 1.23.36.33.79.59 1.29.76.49.18 1.03.26 1.61.26.65 0 1.22-.07 1.71-.22s.92-.32 1.29-.51l.87-3.02h-3.63l.59-2.17h6.04l-1.93 6.79c-.73.43-1.5.77-2.32 1.01-.82.24-1.75.36-2.79.36zm16.89-6.39c.07-.18.1-.42.1-.73 0-.55-.17-1.03-.51-1.44-.34-.41-.88-.61-1.62-.61-.84 0-1.57.26-2.19.78-.62.52-1.07 1.19-1.34 2h5.55zm-5.82 1.68c.01.81.25 1.46.72 1.96.47.49 1.15.74 2.06.74.51 0 .98-.08 1.41-.25.43-.17.87-.43 1.33-.78l1.18 1.56c-.51.42-1.1.77-1.76 1.05-.66.28-1.46.43-2.39.43-.74 0-1.42-.11-2.02-.32-.6-.22-1.11-.53-1.53-.93-.42-.41-.74-.9-.97-1.48-.23-.58-.34-1.23-.34-1.95 0-.78.15-1.56.46-2.34.3-.78.74-1.47 1.3-2.09.56-.61 1.23-1.11 2-1.49.77-.38 1.62-.57 2.55-.57.69 0 1.3.11 1.82.32.53.22.97.51 1.34.88.36.37.64.81.83 1.32.19.51.28 1.05.28 1.63 0 .38-.04.76-.12 1.15-.08.39-.2.77-.34 1.17h-7.78zm11.9-6.24h2.45l-.37 1.39c.43-.44.89-.81 1.38-1.14.49-.32 1.07-.48 1.76-.48.8 0 1.44.21 1.92.63.48.42.81.93 1 1.54.47-.66 1.04-1.18 1.71-1.57.67-.4 1.44-.59 2.3-.59.97 0 1.75.29 2.32.87.57.58.86 1.36.86 2.33 0 .28-.04.59-.11.92-.07.33-.15.65-.23.96l-1.56 5.84h-2.45l1.6-5.93c.04-.18.07-.36.1-.56.03-.19.04-.37.04-.51 0-.54-.15-.95-.45-1.24-.3-.29-.73-.44-1.3-.44-.68 0-1.27.25-1.77.74-.51.49-.86 1.14-1.06 1.93l-1.62 6.01h-2.45l1.6-5.93c.04-.18.07-.36.1-.56.03-.19.04-.37.04-.51 0-.54-.15-.95-.45-1.24-.3-.29-.73-.44-1.3-.44-.69 0-1.28.25-1.78.74s-.86 1.14-1.07 1.93l-1.62 6.01h-2.45l2.86-10.7zm20.68 10.95c-.81 0-1.65-.16-2.5-.48-.86-.32-1.6-.8-2.22-1.45l1.46-1.5c.57.57 1.15.96 1.74 1.18.59.22 1.16.32 1.7.32.49 0 .9-.11 1.23-.34.33-.23.5-.54.5-.93 0-.27-.12-.5-.37-.7-.25-.2-.64-.41-1.18-.64-.44-.18-.85-.36-1.23-.55-.38-.19-.7-.4-.97-.64s-.48-.51-.64-.81c-.16-.3-.23-.66-.23-1.06 0-.5.1-.97.29-1.4.2-.43.48-.81.84-1.13.36-.32.8-.57 1.32-.75.51-.18 1.09-.27 1.74-.27.85 0 1.64.15 2.36.46.72.3 1.31.65 1.75 1.04l-1.36 1.58c-.98-.78-1.96-1.18-2.93-1.18-.52 0-.93.12-1.21.34-.28.23-.42.52-.42.87 0 .27.13.51.39.71.26.2.7.43 1.3.69.4.18.78.36 1.14.55.36.19.67.4.93.63.26.23.47.49.62.79.16.3.23.64.23 1.03 0 .55-.11 1.05-.33 1.5-.22.45-.52.83-.91 1.15-.39.32-.84.56-1.36.73-.52.17-1.09.25-1.7.25zm16.28-1.82c.38 0 .74-.07 1.09-.2.35-.14.67-.32.96-.56.29-.24.54-.51.75-.81.21-.3.35-.62.44-.94l.12-.47c-.34-.11-.71-.2-1.12-.28-.41-.08-.84-.12-1.32-.12-.82 0-1.47.18-1.94.54-.47.36-.7.82-.7 1.39 0 .47.15.83.46 1.08.3.25.72.37 1.25.37zm-.95 1.8c-.46 0-.89-.07-1.29-.21-.4-.14-.74-.34-1.03-.59-.29-.25-.52-.56-.69-.92-.17-.37-.25-.77-.25-1.22 0-.62.12-1.17.36-1.65s.57-.88.99-1.21c.43-.32.93-.57 1.51-.74.58-.17 1.22-.25 1.91-.25.59 0 1.16.05 1.69.14.53.09 1.04.22 1.51.38l.06-.22c.04-.16.07-.3.09-.43.02-.12.03-.26.03-.43 0-.47-.18-.85-.55-1.15-.37-.29-.96-.44-1.78-.44-.54 0-1.06.05-1.55.16s-.96.25-1.39.43l-.41-2.03c.55-.23 1.15-.41 1.78-.54.64-.13 1.32-.19 2.05-.19 1.42 0 2.49.29 3.21.87.72.58 1.09 1.4 1.09 2.45 0 .26-.02.51-.06.75-.04.24-.1.5-.16.77l-1.6 6.02h-2.41l.36-1.4c-.47.5-.99.9-1.54 1.19-.55.29-1.2.44-1.93.44zm11.25-10.93h2.45l-.37 1.39c.43-.44.91-.81 1.43-1.14.52-.32 1.12-.48 1.81-.48 1 0 1.79.29 2.38.86.59.57.88 1.36.88 2.34 0 .28-.03.59-.1.92-.07.33-.14.65-.22.96l-1.54 5.84h-2.45l1.58-5.93c.05-.18.1-.36.12-.56.03-.19.04-.37.04-.51 0-.54-.16-.95-.49-1.24-.32-.29-.78-.44-1.38-.44-.69 0-1.3.25-1.82.74-.53.49-.9 1.14-1.12 1.93l-1.62 6.01h-2.45l2.86-10.7zm15.57 8.84c.49 0 .96-.11 1.43-.34.47-.23.88-.54 1.24-.93s.64-.84.86-1.36c.22-.51.32-1.05.32-1.62 0-.39-.07-.75-.2-1.08a2.62 2.62 0 00-.56-.85 2.62 2.62 0 00-.85-.56c-.33-.14-.7-.2-1.1-.2-.5 0-.97.11-1.42.33-.45.22-.84.53-1.18.91-.34.39-.6.84-.8 1.37-.2.53-.29 1.09-.29 1.68 0 .81.23 1.46.7 1.94s1.09.72 1.86.72zm-.95 2.09c-.59 0-1.15-.1-1.65-.31-.51-.21-.95-.51-1.33-.91-.38-.4-.67-.88-.88-1.44-.21-.56-.31-1.2-.31-1.92 0-.95.17-1.82.5-2.63.33-.8.77-1.5 1.33-2.08a6.15 6.15 0 011.91-1.37c.72-.33 1.46-.5 2.23-.5.95 0 1.7.21 2.27.62a4.6 4.6 0 011.34 1.51l1.6-6h2.45l-3.95 14.8h-2.45l.39-1.42c-.49.49-1 .88-1.55 1.19-.55.3-1.17.46-1.88.46zm18.75-14.41h2.53l2.47 6.71 6.08-6.71h2.86l-3.81 14.19h-2.53l2.74-10.18-6.24 6.69h-.08l-2.62-6.65-2.72 10.14h-2.49l3.81-14.19zm16.52 3.49h2.45l-2.88 10.7h-2.45l2.88-10.7zm.97-3.97h2.66l-.65 2.33h-2.64l.63-2.33zm4.66 3.97h2.45l-.37 1.39c.43-.44.91-.81 1.43-1.14.52-.32 1.12-.48 1.81-.48 1 0 1.79.29 2.38.86.59.57.88 1.36.88 2.34 0 .28-.03.59-.1.92-.07.33-.14.65-.22.96l-1.54 5.84h-2.45l1.58-5.93c.05-.18.09-.36.12-.56.03-.19.04-.37.04-.51 0-.54-.16-.95-.49-1.24-.32-.29-.78-.44-1.38-.44-.69 0-1.3.25-1.82.74-.53.49-.9 1.14-1.12 1.93l-1.62 6.01h-2.45l2.86-10.7zm31.33-60.99c.55.98.96 1.91 1.24 2.76v35.22l-1.44 2.32h12.59l-.21-.41c-.82-1.13-1.37-2.26-1.65-3.39V86.26c.41-1.27.96-2.26 1.65-2.97H421.5zm-29.43 3.87l-.7 1.33-3.07 8.69-.36 1.33-2.39 6.68-.34 1.34-.7 1.33-3.43 9.68c-.67 2.4-1.45 4.37-2.35 5.91l-.58-.58c-3.13-3.16-10.78-14.06-12.73-17.87 20.48-20.64-18.26-25.15-24.63-20.74l-.2.61c1.51.83 2.26 2.07 2.26 3.71v32.02c-.69 1.24-1.38 2.2-2.06 2.88h13.96c-.95-1.37-1.63-2.67-2.04-3.89l.2-32.04c12.69 0 13.77 15.19 1.64 17.25l.2.84c2.46 3.36 4.54 7.32 6.78 10.87 1.1 2.05 2.26 3.63 3.49 4.72 4.36 2.05 8.93 2.8 13.7 2.27l-.03.04h10.3l-.67-1.99 3.43-10.36h10.28c1.97 3.81 2.86 7.6 4.81 11.02l-.68 1.33h14.07c-5.75-9.7-11.69-30.28-15.45-40.38h-13.03l.34 4.01zm8.01 20.21h-7.67l3.64-12.53 4.02 12.53zm-87.22-24.1c1.01 1.57 1.52 3.07 1.52 4.5V121l-1.52 2.36 22.51.21c1.1-1.98 2.95-4.81 3.66-6.86-3.86.95-11.88 1.32-15.23.63v-14.58l12.88-.22-.65-1.49c-.99-2-1.71-3.3-2.14-3.87-2.41 0-8 .38-10.08-.21v-7.94c1.86-.44 8.22-.37 10.5 0l3.22.65-.42-1.3-3.01-5.13h-21.23zm-36.55.56c.72.99 1.29 2 1.72 3v32.88c-.13 1.29-.49 2.44-1.07 3.43h8.17c-.56-1.57-.92-2.93-1.07-4.07V95.84c4.2 7.01 9.51 14.54 13.97 21.71 2.98 4.7 7.04 6.39 12.68 5.38V91.56c-.15-3.44-.01-6.25.42-8.39h-6.43c.42 1.16.71 2.09.85 2.79v26.86l-.42-.64c-5.85-7.71-15.08-20.85-19.13-29.01h-9.68v.66zm-13.56-.76c.55.99.96 1.91 1.24 2.77v35.3l-1.45 2.33h12.62l-.21-.42c-.82-1.13-1.37-2.27-1.65-3.4v-33.6c.41-1.27.96-2.27 1.65-2.98h-12.2zm-44.69-.68c.63 1.76 1.22 3.9 1.71 5.72l.21 2.88-.21 1.54c-1.31 8.81-3.55 17.87-5.14 26.7l-.65 1.56-2.14 2.88h6.22l.21-1.34c.88-4.55 1.9-9.13 2.77-13.69.37-3.14 1.51-6.61 1.92-9.7 2.05 4.39 6.7 19.89 7.72 24.73 2.74 0 5.7-.23 8.57-.23.5-3.93 4.69-22.33 6.43-25.61.57 2.6.96 5.19 1.5 7.74.81 3.93 1.71 8.16 2.35 12.14l.64 3.76-1.5 1.53h11.14c-.86-1.18-1.5-2.28-1.92-3.3l-.21-1.12c-1.99-10.89-4.43-22.66-6.86-33.56l-.44-2.63h-6.63c-.86 0-.86 1.25 0 3.74 0 .43-.14 1.18-.44 2.21-1.91 7.02-3.45 14.19-5.35 21.2-.31 1.63-1.06 2.96-1.06 4.64-3.4-10.52-6.14-21.24-9.43-31.79h-9.41zm220.6 20.09l5.05 4.84c13.4 12.89-3.09 11.01-7.77 7.98v.65l.42 1.67.21 1.04.84 3.17 3.37 1.26c11.21 1.27 17.73-1.61 19.57-8.63 2.76-9.18-18.1-17.59-18.1-24.41 7.34-8.94 13.87 6.99 13.26-1.05v-4.63c-15.55-6.21-26.32 9.66-16.85 18.1zM166.12 87.32l-.69 1.31-3.02 8.55-.36 1.31-2.35 6.57-.33 1.32-.69 1.31-3.37 9.52c-.67 2.41-1.46 4.37-2.36 5.9h10.13l-.66-1.96 3.37-10.19h10.11c1.93 3.75 2.82 7.48 4.73 10.84l-.67 1.31h13.84c-5.66-9.54-11.5-29.78-15.19-39.72h-12.82l.33 3.94zm7.87 19.88h-7.54l3.59-12.32L174 107.2zm-60.06-22.11c1.5.82 2.25 2.06 2.25 3.69v31.86c-.69 1.23-1.37 2.19-2.05 2.86h13.89c-.95-1.37-1.62-2.66-2.03-3.87l.2-31.88c12.62 0 13.7 15.11 1.63 17.16l.2.83c2.45 3.35 4.52 7.29 6.74 10.82 1.09 2.04 2.25 3.61 3.47 4.69 4.36 2.04 8.92 2.79 13.68 2.25l-.61-.61c-3.11-3.14-10.72-13.98-12.67-17.78 20.38-20.54-18.16-25.02-24.5-20.63l-.2.61zm-39.63.1c1.5.82 2.24 2.05 2.24 3.67v31.69c-.68 1.23-1.36 2.18-2.04 2.85h13.81c-.94-1.36-1.61-2.65-2.02-3.85l.2-31.71c12.56 0 13.63 15.03 1.62 17.07l.2.83c2.43 3.33 4.49 7.25 6.71 10.76 1.09 2.03 2.24 3.59 3.45 4.67 4.34 2.03 8.87 2.78 13.61 2.24l-.61-.61c-3.09-3.12-10.67-13.91-12.6-17.69C119.14 84.68 80.8 80.22 74.5 84.59l-.2.61zm-29.63-2.03c1 1.57 1.51 3.07 1.51 4.5v33.21l-1.51 2.35 22.49.21c1.09-1.97 2.95-4.81 3.65-6.85-3.86.95-11.87 1.32-15.22.63v-14.56l12.86-.22-.65-1.49c-.99-2-1.71-3.29-2.14-3.87-2.41 0-8 .38-10.07-.21v-7.93c1.85-.44 8.21-.37 10.49 0l3.21.65-.42-1.3-3.01-5.13H44.65z" fill="#fff"/></svg>