<svg xmlns="http://www.w3.org/2000/svg" viewBox="0 0 312.01 105.67" shape-rendering="geometricPrecision" text-rendering="geometricPrecision" image-rendering="optimizeQuality" fill-rule="evenodd" clip-rule="evenodd"><defs><style>.fil0,.fil1{fill:#fff}.fil1{fill-rule:nonzero}</style></defs><g id="Camada_x0020_1"><g id="_1881142748912"><path class="fil0" d="M81 49.29c-.52-6.09 3.53-10.61 7.91-14.93 2.69.28 5.06.53 7.75.82 1.26-2.48 2.51-4.95 3.77-7.43 1.22-.65 2.44-1.31 3.66-1.96 1.41.62 2.83 1.24 4.24 1.86 1.93-2.26 3.86-4.53 5.79-6.79 3.31.78 6.61 1.56 9.92 2.34 1.32-3.63 2.64-7.27 3.96-10.9 7.03-6.49 7.14-12.42 10.83-12.3h4.14c7.16 6.25 14.32 12.49 21.48 18.74 2.82-2.71 5.64-5.43 8.46-8.14 11.51 6.07 17.56 8.45 27.85 13.11 3.38 2.34 6.75 4.67 10.13 7.01 4.19 5.61 8.38 11.21 12.57 16.82.09.55.18 1.1.27 1.64l.01 1.5-142.65.15c-.15-.59-.06-.67-.01-.86.03-.12.03-.29-.07-.67zm45.4-.33c-.22-3.03 1.1-7.03 2.79-9.01 2.13-2.48 4.88-3.2 8.68-4.36-6.34-1.28-7.1-4.2-2.12-8.81-.81-1.56-1.63-3.11-2.44-4.67 2.09-.27 3.12-2.17 2.46-6.5-.14-.91-.13-.71.29-1.54.89-1.78 1.78-3.55 2.67-5.33-.71-2.41-1.02-4.82-1.72-7.22l2.83-.04c.98-.01 1.95.04 2.79-.05 6.93 6.16 13.15 12.12 20.08 18.28-.5 1.7-.89 3.05-1.39 4.74-2.37 2.4-4.74 4.81-7.11 7.21 4.17 2.3 7.04 11.15 10.53 13 3.09.77 6.99-2.28 7.61-1.96.99.5 1.98.99 2.97 1.49-1.31-2.83-2.62-5.66-3.92-8.49 1.35-3.01 3.59-5.91 4.94-8.91l-1.75-5.31c.6-.85 1.35-2.14 1.95-2.98-1.84.04-3.12-.86-2.92-2.33.1-.69.24-.99.74-1.39.82-.65 1.29-1.22 2.24-1.89 6.47 3.96 12.76 8.14 19.23 12.1.42-.46 1.03-1.13 1.46-1.59 3.57 2.26 7.14 4.53 10.71 6.79l14.64 17.19c.72.95.87 1.45-.74 1.49-7.39 0-14.78-.01-22.18-.01-1.5-1.39-3.61-1.94-5.83-2.34 1.13-.42 2.26-.85 3.4-1.27-1.31-1.27-2.52-2.36-4.14-3.49-2.18-.57-3.96-.7-5.94-1.08-.35 1.06-.85 2.43-1.21 3.49-2.58.56-5.02.82-7.6 1.39 1.91 1.03 3.82 2.05 5.73 3.08-8.21.1-16.41.21-24.62.31-1.95-1.66-4.81-1.55-7.21-3.08-1.13.92-1.84 1.87-2.12 2.86-7.92.07-15.84.14-23.77.2zm-41.16.08c1.38-1.69 2.39-3.79 3.2-6.11v-6.68c3.39 1.29 6.77 2.57 10.16 3.86 1.37-.35 2.49-.99 3.29-1.97-.06-2.01-.12-4.01-.19-6.02.75-1.47 1.28-2.95 2.03-4.42 1.54.41 3.3.82 4.83 1.22.39 10.52 2.59 14.78 4.98 17.69.66-4.29 1.32-9.25 1.98-13.55-.38-.56-.75-1.13-1.13-1.69-.45-.68-.47-.48.14-1.03.8-.72 1.6-1.45 2.4-2.17-1.92-1.42-2.39-3.4-1.97-5.74 3.17.91 6.33 1.82 9.5 2.73 1.57 2.92 3.13 5.83 4.7 8.75-.06.69-.13 1.38-.19 2.07-1.57 1.79-3.14 3.57-4.7 5.36.66 1.1 1.32 2.2 1.97 3.29-2.1 1.47-4.2 2.95-6.3 4.42-5.96.06-11.67.12-17.63.18-.71-1.97-2.47-3.09-6.66-.1-3.54-.03-6.87-.06-10.42-.1zm62.51-18.9c.77 1.57 1.54 3.13 2.31 4.7 1.42-2.08 2.83-4.15 4.25-6.23-1.95-4.7-3.9-9.41-5.86-14.11.06 3.6 1.47 7.4 3.02 11.22-1.24 1.48-2.48 2.95-3.72 4.43zM33.22 37.68c-4.08 1.98-19.56 1-24.9 1.03-1.86-.15-3.48-.07-4.86.23C1.02 40.93 0 42.38 0 45.42l1.62-.47 9.46.23V78.9c-.3 1.38-.84 2.62-1.6 3.7l1.6-.23 12.47.23c-.93-1.24-1.62-2.86-2.08-4.85V45.18l.69-.23h6.93c2.4-1.82 3.77-4.01 4.38-6.46l-.26-.81z"/><path class="fil1" d="M29.86 55.53c.67 1.05 1.01 2.05 1.01 3.01v22.19l-1.01 1.57 15.03.14c.73-1.32 1.97-3.21 2.44-4.58-2.58.63-7.93.88-10.17.42v-9.73l8.6-.14-.44-1c-.66-1.34-1.14-2.2-1.43-2.58-1.61 0-5.34.25-6.73-.14v-5.3c1.24-.29 5.49-.25 7.01 0l2.15.44-.28-.87-2.01-3.43H29.86zM49.65 56.89c1 .55 1.5 1.37 1.5 2.45v21.17c-.46.82-.91 1.46-1.36 1.9h9.23c-.63-.91-1.08-1.77-1.35-2.57l.13-21.19c8.39 0 9.1 10.04 1.08 11.4l.13.55c1.63 2.22 3 4.84 4.48 7.19.73 1.36 1.5 2.4 2.31 3.12 2.9 1.36 5.93 1.86 9.09 1.5l-.4-.41c-2.07-2.09-7.13-9.29-8.42-11.82C79.61 56.53 54 53.55 49.79 56.47l-.13.41zM76.13 56.82c1 .55 1.51 1.37 1.51 2.47v21.28c-.46.82-.92 1.46-1.37 1.91h9.28c-.63-.91-1.08-1.78-1.36-2.59l.13-21.3c8.43 0 9.15 10.09 1.09 11.46l.13.56c1.63 2.24 3.02 4.87 4.5 7.23.73 1.37 1.51 2.41 2.32 3.13 2.91 1.37 5.96 1.87 9.14 1.5l-.41-.41c-2.08-2.1-7.16-9.34-8.46-11.88C106.24 56.46 80.5 53.46 76.26 56.4l-.13.41zM111 58.31l-.46.87-2.02 5.71-.24.87-1.57 4.39-.22.88-.46.87-2.25 6.36c-.45 1.61-.97 2.92-1.58 3.94h6.77l-.44-1.31 2.25-6.81h6.75c1.29 2.5 1.88 5 3.16 7.24l-.45.87h9.25c-3.78-6.38-7.68-19.9-10.15-26.54h-8.56l.22 2.63zm5.26 13.28h-5.04l2.4-8.23 2.64 8.23zM293.07 68.43l3.37 3.23c8.95 8.61-2.06 7.36-5.19 5.33v.43l.28 1.12.14.7.56 2.12 2.26.84c7.49.85 11.85-1.07 13.07-5.77 1.85-6.13-12.09-11.75-12.09-16.31 4.91-5.97 9.27 4.67 8.86-.7v-3.09c-10.39-4.15-17.59 6.45-11.26 12.09zM145.69 55.01c.42 1.17.81 2.61 1.14 3.82l.14 1.93-.14 1.03c-.88 5.88-2.37 11.94-3.44 17.84l-.44 1.04-1.43 1.93h4.16l.14-.9c.58-3.04 1.27-6.1 1.85-9.14.25-2.1 1.01-4.42 1.28-6.48 1.37 2.93 4.48 13.29 5.16 16.52 1.83 0 3.81-.15 5.72-.15.33-2.63 3.13-14.92 4.3-17.11.38 1.74.64 3.47 1 5.17.54 2.62 1.15 5.45 1.57 8.11l.43 2.51-1 1.02h7.44c-.57-.79-1-1.52-1.28-2.2l-.14-.74c-1.33-7.28-2.96-15.14-4.58-22.42l-.29-1.76h-4.43c-.57 0-.57.83 0 2.5 0 .29-.1.79-.29 1.47-1.28 4.69-2.3 9.48-3.58 14.16-.21 1.09-.71 1.98-.71 3.1-2.27-7.03-4.1-14.19-6.3-21.24h-6.29zM175.55 55.46c.37.66.64 1.28.83 1.85v23.58l-.97 1.55h8.43l-.14-.28c-.55-.76-.92-1.52-1.1-2.27V57.44c.27-.85.64-1.52 1.1-1.99h-8.15zM184.61 55.97c.48.66.86 1.33 1.15 2v21.97c-.09.86-.33 1.63-.72 2.29h5.46c-.38-1.05-.62-1.96-.72-2.72V64c2.81 4.68 6.35 9.71 9.34 14.5 1.99 3.14 4.71 4.27 8.47 3.59V61.13c-.1-2.3-.01-4.17.28-5.61h-4.3c.28.77.47 1.4.57 1.86v17.95l-.28-.43c-3.91-5.15-10.07-13.93-12.78-19.38h-6.46v.44zM209.03 55.6c.67 1.05 1.01 2.05 1.01 3.01v22.21l-1.01 1.57 15.04.14c.73-1.32 1.97-3.21 2.44-4.58-2.58.63-7.94.88-10.18.42v-9.74l8.6-.14-.44-1c-.66-1.34-1.14-2.2-1.43-2.59-1.61 0-5.35.25-6.74-.14v-5.3c1.24-.29 5.49-.25 7.01 0l2.15.44-.28-.87-2.01-3.43h-14.18zM227.55 56.66c1.01.55 1.51 1.38 1.51 2.48v21.39c-.46.83-.92 1.47-1.38 1.92h9.33c-.64-.92-1.09-1.79-1.36-2.6l.13-21.41c8.48 0 9.2 10.15 1.09 11.52l.14.56c1.64 2.25 3.03 4.89 4.53 7.27.74 1.37 1.51 2.42 2.33 3.15 2.93 1.37 5.99 1.88 9.19 1.51l-.41-.41c-2.09-2.11-7.2-9.39-8.51-11.94 13.68-13.79-12.2-16.8-16.46-13.85l-.14.41z"/><path class="fil1" d="M261.96 58.19l-.47.89-2.05 5.81-.24.89-1.6 4.46-.23.89-.47.89-2.29 6.47c-.45 1.63-.99 2.97-1.6 4.01h6.88l-.45-1.33 2.29-6.92h6.87c1.31 2.55 1.91 5.08 3.21 7.36l-.45.89h9.4c-3.84-6.48-7.81-20.23-10.32-26.98h-8.71l.23 2.68zm5.35 13.5h-5.12l2.44-8.37 2.69 8.37zM281.62 55.6c.37.66.64 1.27.83 1.85v23.53l-.96 1.55h8.41l-.14-.28c-.55-.75-.92-1.51-1.1-2.27v-22.4c.27-.85.64-1.51 1.1-1.98h-8.13z"/><path class="fil0" d="M312.01 50.31l-174.03 1.95-1.5-.02-1.5-.02-1.51-.02-1.51-.02-1.51-.02-1.53-.02-1.53-.03-1.53-.02-1.54-.02-1.53-.02-1.55-.02-1.55-.02-1.57-.02-1.57-.03-1.56-.02-1.58-.02-1.58-.02-1.59-.03-1.6-.02-1.59-.02-1.59-.03-1.62-.02-1.6-.02-1.63-.02-1.64-.03-1.62-.02-1.63-.02-1.65-.03-1.63-.02-1.66-.02-1.66-.02-1.67-.03-1.78-.02-1.77-.03-1.79-.02-1.81-.03-1.79-.03-1.8-.02-1.84-.03-1.82-.03-1.82-.02-1.84-.03-1.86-.02-1.85-.03-1.86-.03-1.86-.03-1.88-.02-1.89-.03-1.89-.03-1.9-.02-1.91-.03-1.9-.03-1.92-.02-1.92-.03-1.95-.03-1.94-.02-1.95-.03-1.95-.03-1.97-.03-1.96-.03-1.99-.02-1.98-.03-2.01-.03-1.99-.03 161.7-2.12 2.24.03 2.21.03 2.21.03 2.2.03 2.19.03 2.18.03 2.17.03 2.18.03 2.15.03 2.15.03 2.14.04 2.13.02 2.13.03 2.11.03 2.11.04 2.1.02 2.1.04 2.07.03 2.09.02 2.07.03 2.06.03 2.04.03 2.05.03 2.03.03 2.04.03 2.02.03 2.01.03 2 .03 2 .02 2 .03 1.97.03 1.98.03 1.84.03 1.84.02 1.84.03 1.83.02 1.82.03 1.82.03 1.81.02 1.8.03 1.8.03 1.8.02 1.78.03 1.78.02 1.78.02 1.76.03 1.77.02 1.75.03 1.76.02 1.75.03 1.74.02 1.72.03 1.73.02 1.72.02 1.72.03 1.7.02 1.71.02 1.69.03 1.69.02 1.69.03 1.68.02 1.67.02 1.67.03z"/><g><path class="fil1" d="M15.35 94.02h1.68l-2.55 9.48H12.8l2.55-9.48zm3.37 2.33h1.64l-.24.93c.29-.29.6-.54.92-.76.33-.21.72-.32 1.18-.32.53 0 .96.14 1.28.42.32.28.54.62.67 1.03.32-.44.7-.79 1.14-1.05.45-.26.96-.4 1.54-.4.65 0 1.17.19 1.55.58.38.39.58.91.58 1.56 0 .19-.03.4-.07.62-.05.22-.1.44-.16.64l-1.04 3.9h-1.64l1.07-3.96c.03-.12.05-.24.07-.37.02-.13.03-.24.03-.34 0-.36-.1-.64-.3-.83-.2-.19-.49-.29-.87-.29-.45 0-.85.16-1.19.49-.34.33-.58.76-.71 1.29l-1.08 4.01h-1.64l1.07-3.96c.03-.12.05-.24.07-.37.02-.13.03-.24.03-.34 0-.36-.1-.64-.3-.83-.2-.19-.49-.29-.87-.29-.46 0-.86.16-1.19.49-.33.33-.57.76-.72 1.29l-1.08 4.01h-1.64l1.91-7.15zm15.16 5.91c.33 0 .65-.07.95-.22.3-.15.56-.35.79-.62.23-.26.4-.57.53-.91.13-.35.2-.72.2-1.12 0-.55-.15-.98-.46-1.3-.31-.32-.72-.47-1.23-.47-.33 0-.64.08-.95.23-.31.15-.59.36-.83.62s-.43.56-.58.9c-.14.34-.22.7-.22 1.08 0 .26.04.5.13.72.09.22.21.41.37.58.16.16.35.29.57.38.22.09.47.14.74.14zm-2.28-5.91h1.64l-.26.95c.33-.33.67-.59 1.04-.79.37-.2.78-.3 1.25-.3.4 0 .77.07 1.11.21.34.14.64.34.89.61.25.27.44.59.58.97.14.38.21.8.21 1.27 0 .63-.11 1.22-.33 1.75-.22.54-.52 1-.89 1.39-.37.39-.79.69-1.27.91-.48.22-.98.33-1.49.33-.63 0-1.14-.14-1.52-.41-.38-.28-.68-.61-.89-1.01l-.92 3.44h-1.64l2.49-9.32zm11.12 5.89c.34 0 .66-.08.96-.24.3-.16.56-.37.78-.63.22-.26.39-.55.52-.87.13-.33.19-.65.19-.98 0-.6-.17-1.07-.51-1.4-.34-.33-.78-.49-1.32-.49-.35 0-.68.08-.98.24-.3.16-.56.37-.78.64-.22.26-.39.56-.51.88-.12.33-.18.65-.18.96 0 .61.17 1.07.51 1.4.34.33.78.49 1.32.49zm-.09 1.42c-.52 0-.98-.08-1.39-.24-.41-.16-.76-.39-1.06-.68-.29-.29-.52-.64-.68-1.04-.16-.4-.24-.83-.24-1.3 0-.54.11-1.07.33-1.57.22-.51.51-.95.89-1.34.38-.39.82-.7 1.33-.93.51-.24 1.05-.35 1.63-.35.51 0 .98.08 1.39.24.41.16.76.39 1.06.68.29.29.52.64.68 1.04.16.4.24.84.24 1.31 0 .54-.11 1.07-.33 1.57-.22.51-.52.95-.9 1.34-.38.39-.82.7-1.33.93-.51.23-1.04.35-1.61.35zm6.76-7.31h1.64l-.42 1.61c.4-.57.84-1.01 1.31-1.33.48-.32 1.04-.46 1.68-.41l-.46 1.73h-.09c-.36 0-.71.06-1.04.18-.33.12-.63.3-.91.54-.28.24-.52.54-.74.9-.22.36-.39.79-.53 1.29l-.72 2.65h-1.64l1.91-7.15zm6.26 7.27c-.58 0-1.02-.13-1.33-.38-.31-.25-.46-.6-.46-1.03 0-.28.04-.56.12-.83l.96-3.63h-.91l.38-1.41h.91l.53-1.96h1.64l-.53 1.96h1.91l-.38 1.41h-1.91l-.92 3.45c-.02.07-.03.14-.04.22-.01.07-.01.14-.01.19 0 .37.24.56.72.56.33 0 .68-.08 1.04-.23l-.38 1.42c-.38.17-.83.26-1.34.26zm8.93-4.23c.05-.12.07-.28.07-.49 0-.37-.11-.69-.34-.96-.23-.27-.59-.41-1.08-.41-.56 0-1.05.17-1.46.52-.42.35-.71.79-.89 1.33h3.71zm-3.89 1.12c.01.54.17.98.48 1.31.31.33.77.49 1.37.49.34 0 .66-.06.94-.17.28-.11.58-.29.89-.52l.79 1.04c-.34.28-.74.51-1.18.7-.44.19-.98.28-1.6.28-.5 0-.95-.07-1.35-.22-.4-.14-.74-.35-1.02-.62s-.5-.6-.65-.99c-.15-.39-.23-.82-.23-1.3 0-.52.1-1.05.31-1.56.2-.52.49-.98.87-1.39.37-.41.82-.74 1.33-1 .51-.25 1.08-.38 1.71-.38.46 0 .87.07 1.22.22.35.14.65.34.89.59.24.25.43.54.56.88.13.34.19.7.19 1.09 0 .25-.03.51-.08.77s-.13.52-.23.78h-5.2zm7.95-4.17h1.64l-.42 1.61c.4-.57.84-1.01 1.31-1.33.48-.32 1.04-.46 1.68-.41l-.46 1.73h-.09c-.36 0-.71.06-1.04.18-.33.12-.63.3-.91.54-.28.24-.52.54-.74.9-.22.36-.39.79-.53 1.29l-.72 2.65h-1.64l1.91-7.15zm11.11 5.91c.7 0 1.41-.28 2.13-.84l-1.67-2.32c-.7.22-1.2.5-1.5.85-.31.35-.46.71-.46 1.09 0 .36.13.65.39.88.26.23.63.34 1.12.34zm1.18-4.55c.38-.12.69-.24.93-.37.24-.13.44-.25.58-.38.14-.13.25-.26.3-.39.06-.14.09-.28.09-.43 0-.25-.09-.48-.28-.67-.19-.19-.45-.29-.79-.29-.19 0-.36.03-.52.1-.16.07-.3.16-.41.28-.12.12-.21.25-.27.4-.06.15-.09.31-.09.48 0 .18.03.37.1.58.07.2.19.44.36.7zm1.71 4.77c-.47.38-.95.67-1.44.87-.49.2-1.03.3-1.62.3-.42 0-.82-.06-1.17-.17-.36-.11-.66-.28-.92-.49-.26-.21-.46-.47-.61-.78-.15-.31-.22-.66-.22-1.06 0-.63.23-1.22.69-1.76.46-.54 1.19-.97 2.19-1.27-.17-.29-.3-.58-.4-.86-.09-.28-.14-.56-.14-.83 0-.34.07-.67.2-.98.14-.31.33-.58.58-.82.25-.23.56-.42.91-.56.35-.14.74-.2 1.16-.2.37 0 .71.05 1.02.16.31.11.57.26.79.45.22.19.39.42.51.69.12.27.18.56.18.87 0 .23-.04.47-.13.71s-.23.47-.44.7c-.21.23-.49.44-.83.65-.35.21-.78.39-1.31.56l1.33 1.83c.23-.24.44-.51.65-.81.21-.29.42-.61.62-.94l1.04.7c-.51.8-1.03 1.49-1.54 2.06l1.02 1.41-1.23.79-.88-1.22zm9.94-8.45h6.96l-.41 1.5h-5.3l-.66 2.47h4.7l-.41 1.48h-4.7l-.68 2.53h5.38l-.41 1.5h-7.03l2.55-9.48zm9.18 5.76l-1.65-3.43h1.76l1.02 2.29 2.11-2.29h1.98l-3.47 3.59 1.69 3.56h-1.76l-1.07-2.44-2.26 2.44h-1.99l3.64-3.72zm8.97 2.48c.33 0 .65-.07.95-.22.3-.15.56-.35.79-.62.23-.26.4-.57.53-.91.13-.35.2-.72.2-1.12 0-.55-.15-.98-.46-1.3-.31-.32-.72-.47-1.23-.47-.33 0-.64.08-.95.23-.31.15-.59.36-.83.62s-.43.56-.58.9c-.14.34-.22.7-.22 1.08 0 .26.04.5.13.72.09.22.21.41.37.58.16.16.35.29.57.38.22.09.47.14.74.14zm-2.28-5.91h1.64l-.26.95c.33-.33.67-.59 1.04-.79.37-.2.78-.3 1.25-.3.4 0 .77.07 1.11.21.34.14.64.34.89.61.25.27.44.59.58.97.14.38.21.8.21 1.27 0 .63-.11 1.22-.33 1.75-.22.54-.52 1-.89 1.39-.37.39-.79.69-1.27.91-.48.22-.98.33-1.49.33-.63 0-1.14-.14-1.52-.41-.38-.28-.68-.61-.89-1.01l-.92 3.44h-1.64l2.49-9.32zm11.12 5.89c.34 0 .66-.08.96-.24.3-.16.56-.37.78-.63.22-.26.39-.55.52-.87.13-.33.19-.65.19-.98 0-.6-.17-1.07-.51-1.4-.34-.33-.78-.49-1.32-.49-.35 0-.68.08-.98.24-.3.16-.56.37-.78.64-.22.26-.39.56-.51.88-.12.33-.18.65-.18.96 0 .61.17 1.07.51 1.4.34.33.78.49 1.32.49zm-.09 1.42c-.51 0-.98-.08-1.39-.24-.41-.16-.76-.39-1.06-.68-.29-.29-.52-.64-.68-1.04-.16-.4-.24-.83-.24-1.3 0-.54.11-1.07.33-1.57.22-.51.52-.95.89-1.34.38-.39.82-.7 1.33-.93.51-.24 1.05-.35 1.63-.35.51 0 .98.08 1.39.24.41.16.76.39 1.06.68.29.29.52.64.68 1.04.16.4.24.84.24 1.31 0 .54-.11 1.07-.33 1.57-.22.51-.52.95-.9 1.34-.38.39-.82.7-1.33.93-.51.23-1.04.35-1.61.35zm6.76-7.31h1.64l-.42 1.61c.4-.57.84-1.01 1.31-1.33.48-.32 1.04-.46 1.68-.41l-.46 1.73h-.09c-.36 0-.71.06-1.04.18-.33.12-.63.3-.91.54-.28.24-.52.54-.74.9-.22.36-.39.79-.53 1.29l-.72 2.65h-1.64l1.91-7.15zm6.26 7.27c-.58 0-1.02-.13-1.33-.38-.31-.25-.46-.6-.46-1.03 0-.28.04-.56.12-.83l.96-3.63h-.91l.38-1.41h.91l.53-1.96h1.64l-.53 1.96h1.91l-.38 1.41h-1.91l-.92 3.45c-.02.07-.03.14-.04.22-.01.07-.01.14-.01.19 0 .37.24.56.72.56.33 0 .68-.08 1.04-.23l-.38 1.42c-.38.17-.83.26-1.34.26zm8.93-4.23c.05-.12.07-.28.07-.49 0-.37-.11-.69-.34-.96-.23-.27-.59-.41-1.08-.41-.56 0-1.05.17-1.46.52-.42.35-.71.79-.89 1.33h3.71zm-3.89 1.12c.01.54.17.98.48 1.31.31.33.77.49 1.37.49.34 0 .66-.06.94-.17.28-.11.58-.29.89-.52l.79 1.04c-.34.28-.74.51-1.18.7-.44.19-.98.28-1.6.28-.5 0-.95-.07-1.35-.22-.4-.14-.74-.35-1.02-.62s-.5-.6-.65-.99c-.15-.39-.23-.82-.23-1.3 0-.52.1-1.05.3-1.56.2-.52.49-.98.87-1.39.37-.41.82-.74 1.33-1 .51-.25 1.08-.38 1.71-.38.46 0 .87.07 1.22.22.35.14.65.34.89.59.24.25.43.54.56.88.13.34.19.7.19 1.09 0 .25-.03.51-.08.77s-.13.52-.23.78h-5.2zm7.95-4.17h1.64l-.42 1.61c.4-.57.84-1.01 1.31-1.33.48-.32 1.04-.46 1.68-.41l-.46 1.73h-.09c-.36 0-.71.06-1.04.18-.33.12-.63.3-.91.54-.28.24-.52.54-.74.9-.22.36-.39.79-.53 1.29l-.72 2.65h-1.64l1.91-7.15zm11.73 5.89c.34 0 .66-.08.96-.24.3-.16.56-.37.78-.63.22-.26.39-.55.52-.87.13-.33.19-.65.19-.98 0-.6-.17-1.07-.51-1.4-.34-.33-.78-.49-1.32-.49-.35 0-.68.08-.98.24-.3.16-.56.37-.78.64-.22.26-.39.56-.51.88-.12.33-.18.65-.18.96 0 .61.17 1.07.51 1.4.34.33.78.49 1.32.49zm-.09 1.42c-.51 0-.98-.08-1.39-.24-.41-.16-.76-.39-1.06-.68-.29-.29-.52-.64-.68-1.04-.16-.4-.24-.83-.24-1.3 0-.54.11-1.07.33-1.57.22-.51.52-.95.89-1.34.38-.39.82-.7 1.33-.93.51-.24 1.05-.35 1.63-.35.51 0 .98.08 1.39.24.41.16.76.39 1.06.68.29.29.52.64.68 1.04.16.4.24.84.24 1.31 0 .54-.11 1.07-.33 1.57-.22.51-.52.95-.9 1.34-.38.39-.82.7-1.33.93-.51.23-1.04.35-1.61.35zm6.77-5.91h-.91l.38-1.41h.91l.14-.58c.21-.77.54-1.33 1-1.69.46-.36 1.03-.54 1.73-.54.29 0 .55.02.79.07.23.05.44.1.62.18l-.37 1.37c-.34-.14-.68-.22-1-.22-.61 0-1 .33-1.18 1l-.11.41h1.98l-.38 1.41h-1.95l-1.54 5.74h-1.64l1.54-5.74zm12.79 5.91c-.56 0-1.1-.09-1.62-.26s-.98-.43-1.39-.77c-.41-.34-.73-.76-.98-1.27-.24-.51-.37-1.1-.37-1.78 0-.73.15-1.44.45-2.13.3-.69.71-1.3 1.23-1.84.52-.53 1.14-.96 1.86-1.28.72-.32 1.5-.48 2.34-.48.5 0 .94.05 1.33.14.39.09.74.21 1.05.37.31.16.57.34.79.54.22.2.41.41.58.63l-1.25 1.06c-.14-.16-.29-.32-.45-.47-.17-.15-.36-.28-.57-.39-.21-.11-.45-.19-.71-.26-.26-.06-.56-.09-.89-.09-.57 0-1.1.12-1.59.35-.49.23-.92.54-1.27.92-.36.38-.64.83-.84 1.32-.2.5-.3 1.02-.3 1.56 0 .42.07.79.2 1.11.14.32.33.6.57.82.24.22.53.39.86.51.33.12.69.18 1.08.18.43 0 .82-.05 1.14-.15.33-.1.62-.21.86-.34l.58-2.02h-2.42l.39-1.45h4.04l-1.29 4.54c-.49.29-1 .51-1.55.68-.55.16-1.17.24-1.86.24zm11.28-4.27c.05-.12.07-.28.07-.49 0-.37-.11-.69-.34-.96-.23-.27-.59-.41-1.08-.41-.56 0-1.05.17-1.46.52-.42.35-.71.79-.89 1.33h3.71zm-3.89 1.12c.01.54.17.98.48 1.31.31.33.77.49 1.37.49.34 0 .66-.06.94-.17.28-.11.58-.29.89-.52l.79 1.04c-.34.28-.74.51-1.18.7-.44.19-.98.28-1.6.28-.5 0-.95-.07-1.35-.22-.4-.14-.74-.35-1.02-.62s-.5-.6-.65-.99c-.15-.39-.23-.82-.23-1.3 0-.52.1-1.05.3-1.56.2-.52.49-.98.87-1.39.37-.41.82-.74 1.33-1 .51-.25 1.08-.38 1.71-.38.46 0 .87.07 1.22.22.35.14.65.34.89.59.24.25.43.54.56.88.13.34.19.7.19 1.09 0 .25-.03.51-.08.77s-.13.52-.23.78h-5.2zm7.95-4.17h1.64l-.24.93c.29-.29.6-.54.92-.76.33-.21.72-.32 1.18-.32.53 0 .96.14 1.28.42.32.28.54.62.67 1.03.32-.44.7-.79 1.14-1.05.45-.26.96-.4 1.54-.4.65 0 1.17.19 1.55.58.38.39.58.91.58 1.56 0 .19-.03.4-.07.62-.05.22-.1.44-.16.64l-1.04 3.9h-1.64l1.07-3.96c.03-.12.05-.24.07-.37.02-.13.03-.24.03-.34 0-.36-.1-.64-.3-.83-.2-.19-.49-.29-.87-.29-.45 0-.85.16-1.19.49-.34.33-.58.76-.71 1.29l-1.08 4.01h-1.64l1.07-3.96c.03-.12.05-.24.07-.37.02-.13.03-.24.03-.34 0-.36-.1-.64-.3-.83-.2-.19-.49-.29-.87-.29-.46 0-.86.16-1.19.49-.33.33-.57.76-.72 1.29l-1.08 4.01h-1.64l1.91-7.15zm13.82 7.31c-.54 0-1.1-.11-1.67-.32-.57-.21-1.07-.54-1.48-.97l.98-1c.38.38.77.64 1.16.79.4.14.78.22 1.14.22.33 0 .6-.08.82-.23.22-.15.33-.36.33-.62 0-.18-.08-.34-.25-.47-.16-.13-.43-.27-.79-.43-.3-.12-.57-.24-.82-.37s-.47-.27-.65-.43c-.18-.16-.32-.34-.42-.54-.1-.2-.16-.44-.16-.71 0-.33.07-.65.2-.93.13-.29.32-.54.56-.75.24-.21.54-.38.88-.5.34-.12.73-.18 1.16-.18.57 0 1.09.1 1.58.3.48.2.87.44 1.17.7l-.91 1.06c-.66-.52-1.31-.79-1.96-.79-.35 0-.62.08-.81.23-.19.15-.28.35-.28.58 0 .18.09.34.26.47.18.14.47.29.87.46.27.12.52.24.76.37s.44.27.62.42c.18.15.31.33.42.53.1.2.16.43.16.69 0 .37-.07.7-.22 1-.14.3-.35.55-.61.77-.26.21-.56.37-.91.49-.35.11-.73.17-1.13.17zm10.88-1.22c.25 0 .5-.05.73-.14.24-.09.45-.21.64-.37s.36-.34.5-.54.24-.41.29-.63l.08-.31c-.23-.07-.47-.14-.74-.19-.27-.05-.56-.08-.88-.08-.55 0-.98.12-1.29.36-.31.24-.47.55-.47.93 0 .32.1.56.3.72.2.17.48.25.83.25zm-.64 1.21c-.31 0-.59-.05-.86-.14-.27-.1-.5-.23-.69-.39-.19-.17-.35-.37-.46-.62-.11-.24-.17-.51-.17-.81 0-.42.08-.78.24-1.1.16-.32.38-.59.66-.81.28-.22.62-.38 1.01-.49.39-.11.81-.17 1.27-.17.4 0 .77.03 1.13.1.36.06.69.15 1.01.26l.04-.15c.03-.11.05-.2.06-.28.01-.08.02-.18.02-.28 0-.32-.12-.57-.37-.77-.24-.19-.64-.29-1.19-.29-.36 0-.71.04-1.04.11-.33.07-.64.17-.93.28l-.27-1.35c.37-.15.77-.27 1.19-.36.42-.09.88-.13 1.37-.13.95 0 1.66.19 2.15.58.48.39.72.93.72 1.64 0 .17-.01.34-.04.5-.03.16-.06.33-.11.51l-1.07 4.02h-1.61l.24-.93c-.32.33-.66.6-1.03.79-.37.19-.8.29-1.29.29zm7.52-7.3h1.64l-.24.93c.29-.29.61-.54.95-.76.35-.21.75-.32 1.21-.32.67 0 1.2.19 1.59.58.39.38.59.91.59 1.56 0 .19-.02.4-.07.62-.05.22-.1.44-.15.64l-1.03 3.9h-1.64l1.06-3.96c.04-.12.06-.24.08-.37.02-.13.03-.24.03-.34 0-.36-.11-.64-.33-.83-.22-.19-.52-.29-.92-.29-.46 0-.87.16-1.22.49-.35.33-.6.76-.74 1.29l-1.08 4.01h-1.64l1.91-7.15zm10.4 5.91c.33 0 .64-.08.95-.23.31-.15.59-.36.83-.62s.43-.56.58-.91c.14-.34.22-.7.22-1.08 0-.26-.05-.5-.14-.72-.09-.22-.21-.41-.37-.57-.16-.16-.35-.28-.57-.37-.22-.09-.47-.14-.74-.14-.33 0-.65.07-.95.22-.3.15-.56.35-.79.61-.23.26-.4.56-.53.91s-.2.73-.2 1.12c0 .54.16.97.47 1.29.31.32.72.48 1.24.48zm-.64 1.39c-.4 0-.77-.07-1.1-.21-.34-.14-.63-.34-.89-.61-.25-.27-.45-.59-.59-.96-.14-.37-.21-.8-.21-1.28 0-.63.11-1.22.33-1.75.22-.54.52-1 .89-1.39.37-.39.79-.69 1.27-.91.48-.22.98-.33 1.49-.33.63 0 1.14.14 1.52.41.38.28.68.61.89 1.01l1.07-4.01h1.64l-2.64 9.89h-1.64l.26-.95c-.33.32-.67.59-1.04.79-.37.2-.78.3-1.25.3zM245.9 94h1.69l1.65 4.48L253.3 94h1.91l-2.55 9.48h-1.69l1.83-6.8-4.17 4.47h-.05l-1.75-4.44-1.81 6.77h-1.67L245.9 94zm11.04 2.33h1.64l-1.92 7.15h-1.64l1.92-7.15zm.65-2.65h1.77l-.43 1.56h-1.76l.42-1.56zm3.12 2.65h1.64l-.24.93c.29-.29.61-.54.95-.76.35-.21.75-.32 1.21-.32.67 0 1.2.19 1.59.58.39.38.59.91.59 1.56 0 .19-.02.4-.07.62-.05.22-.1.44-.15.64l-1.03 3.9h-1.64l1.06-3.96c.04-.12.06-.24.08-.37.02-.13.03-.24.03-.34 0-.36-.11-.64-.33-.83-.22-.19-.52-.29-.92-.29-.46 0-.87.16-1.22.49-.35.33-.6.76-.74 1.29l-1.08 4.01h-1.64l1.91-7.15zM273.1 99.4c.05-.12.07-.28.07-.49 0-.37-.11-.69-.34-.96-.23-.27-.59-.41-1.08-.41-.56 0-1.05.17-1.46.52-.42.35-.71.79-.89 1.33h3.71zm-3.89 1.12c.01.54.17.98.48 1.31.31.33.77.49 1.37.49.34 0 .66-.06.94-.17.28-.11.58-.29.89-.52l.79 1.04c-.34.28-.74.51-1.18.7-.44.19-.98.28-1.6.28-.5 0-.95-.07-1.35-.22-.4-.14-.74-.35-1.02-.62s-.5-.6-.65-.99c-.15-.39-.23-.82-.23-1.3 0-.52.1-1.05.31-1.56.2-.52.49-.98.87-1.39.37-.41.82-.74 1.33-1 .51-.25 1.08-.38 1.71-.38.46 0 .87.07 1.22.22.35.14.65.34.89.59.24.25.43.54.56.88.13.34.19.7.19 1.09 0 .25-.03.51-.08.77s-.13.52-.23.78h-5.2zm7.95-4.17h1.64l-.42 1.61c.4-.57.84-1.01 1.31-1.33.48-.32 1.04-.46 1.68-.41l-.46 1.73h-.09c-.36 0-.71.06-1.04.18-.33.12-.63.3-.91.54-.28.24-.52.54-.74.9-.22.36-.39.79-.53 1.29l-.72 2.65h-1.64l1.91-7.15zm6.6 6.09c.25 0 .5-.05.73-.14.23-.09.45-.21.64-.37s.36-.34.5-.54.24-.41.29-.63l.08-.31c-.23-.07-.47-.14-.75-.19-.27-.05-.56-.08-.88-.08-.55 0-.98.12-1.29.36-.31.24-.47.55-.47.93 0 .32.1.56.3.72.2.17.48.25.83.25zm-.64 1.21c-.31 0-.59-.05-.86-.14-.27-.1-.5-.23-.69-.39-.19-.17-.35-.37-.46-.62-.11-.24-.17-.51-.17-.81 0-.42.08-.78.24-1.1.16-.32.38-.59.66-.81.28-.22.62-.38 1.01-.49.39-.11.81-.17 1.27-.17.4 0 .77.03 1.13.1.36.06.69.15 1.01.26l.04-.15c.03-.11.05-.2.06-.28.01-.08.02-.18.02-.28 0-.32-.12-.57-.37-.77-.24-.19-.64-.29-1.19-.29-.36 0-.71.04-1.04.11-.33.07-.64.17-.93.28l-.27-1.35c.37-.15.77-.27 1.19-.36.42-.09.88-.13 1.37-.13.95 0 1.66.19 2.15.58.48.39.72.93.72 1.64 0 .17-.01.34-.04.5-.03.16-.06.33-.11.51l-1.07 4.02h-1.61l.24-.93c-.32.33-.66.6-1.03.79-.37.19-.8.29-1.29.29zm8.36-10.04h1.64l-2.65 9.89h-1.64l2.65-9.89zm3.98 10.05c-.54 0-1.1-.11-1.67-.32-.57-.21-1.07-.54-1.48-.97l.98-1c.38.38.77.64 1.16.79.4.14.78.22 1.14.22.33 0 .6-.08.82-.23.22-.15.33-.36.33-.62 0-.18-.08-.34-.25-.47-.16-.13-.43-.27-.79-.43-.3-.12-.57-.24-.82-.37s-.47-.27-.65-.43c-.18-.16-.32-.34-.42-.54-.1-.2-.16-.44-.16-.71 0-.33.07-.65.2-.93.13-.29.32-.54.56-.75.24-.21.54-.38.88-.5.34-.12.73-.18 1.16-.18.57 0 1.09.1 1.58.3.48.2.87.44 1.17.7l-.91 1.06c-.66-.52-1.31-.79-1.96-.79-.35 0-.62.08-.81.23-.19.15-.28.35-.28.58 0 .18.09.34.26.47.18.14.47.29.87.46.27.12.52.24.76.37s.44.27.62.42c.18.15.31.33.42.53.1.2.16.43.16.69 0 .37-.07.7-.22 1-.14.3-.35.55-.61.77-.26.21-.56.37-.91.49-.35.11-.73.17-1.13.17z"/></g></g></g></svg>